<?xml version="1.0" encoding="UTF-8"?>
<!DOCTYPE svg PUBLIC "-//W3C//DTD SVG 1.1//EN" "http://www.w3.org/Graphics/SVG/1.1/DTD/svg11.dtd">
<!-- Creator: CorelDRAW 2018 (64 Bit) -->
<svg xmlns="http://www.w3.org/2000/svg" xml:space="preserve" width="80.2437mm" height="79.5365mm" version="1.1" shape-rendering="geometricPrecision" text-rendering="geometricPrecision" image-rendering="optimizeQuality" fill-rule="evenodd" clip-rule="evenodd"
viewBox="0 0 196.4287 194.6976"
 xmlns:xlink="http://www.w3.org/1999/xlink">
 <g id="Camada_x0020_1">
  <metadata id="CorelCorpID_0Corel-Layer"/>
  <path fill="#FEF2D5" d="M157.6965 166.1266c-1.9982,-0.0994 -4.1913,2.2034 -7.6411,3.6924 -9.3316,4.0275 -20.0038,8.1075 -30.3459,8.762 -21.4674,1.3586 -35.1839,-0.2739 -54.1363,-9.4621 -3.8231,-1.8536 -10.0685,-5.2106 -13.2334,-7.8857l-7.8955 -6.7136c-0.4945,-0.4414 -1.269,-0.9535 -1.8643,-1.4213 -4.0496,-3.1818 -5.0135,-5.3944 -7.1511,-7.5133 -0.6989,-0.6928 -0.1527,-0.1143 -0.8786,-0.7143 -1.011,-0.8357 -0.6083,-0.2015 -1.5309,-1.6871 -0.8364,-1.3466 -0.1944,-0.6886 -1.3312,-1.961l-11.804 -17.5331 -2.6462 -0.2881c3.9448,-0.8279 11.2087,0.2729 15.6578,0.3875 10.4964,0.27 35.5553,-1.1123 44.202,-4.0415 1.6592,1.5645 3.758,7.6889 12.4248,12.97 5.5335,3.3717 13.5102,4.8929 20.9208,3.5311 9.4638,-1.7392 18.0073,-7.6274 22.3087,-16.2169 1.8408,-3.6753 1.96,-5.6084 2.9008,-9.5693 17.6149,-4.8405 25.6707,-6.7104 42.1394,-14.2169 4.2194,-1.9233 8.2558,-4.7426 11.9494,-6.5971 0.1055,9.36 0.8223,16.2494 -0.9598,25.7534 -1.1547,6.1577 -4.0001,16.1192 -6.5126,20.6079 -8.3696,14.9537 -8.0893,14.4541 -17.2029,23.9569 -2.0934,2.1828 -3.7289,4.7411 -7.3699,6.1601z"/>
  <path fill="#FEF2D5" d="M119.5927 108.0311c3.7313,-18.8907 -23.5341,-25.5382 -27.6432,-6.9976 -1.9613,8.8487 3.8635,15.8688 10.5625,17.6577 8.6511,2.3106 15.7278,-3.8102 17.0807,-10.6601zm-9.7267 -24.0504c27.8843,7.6578 16.4866,47.2462 -9.3605,40.9512 -4.6789,-1.1395 -9.5116,-4.6466 -12.0682,-8.4484 -2.8151,-4.1862 -4.6743,-10.5035 -3.5074,-16.5713 1.9576,-10.1794 12.2828,-19.4062 24.936,-15.9314z"/>
  <path fill="#FEF2D5" d="M116.7637 105.3203c-0.0867,6.015 -5.8238,11.4422 -12.2682,10.8165 -5.7543,-0.5584 -10.2266,-6.0003 -10.0425,-12.3715 0.4365,-15.0979 22.5366,-14.1185 22.3107,1.5549z"/>
  <path fill="#46291A" d="M17.2381 123.4014l-7.1589 -1.5123c3.9651,14.1751 8.153,20.9445 16.0639,31.3611 2.3595,3.1071 5.5726,7.2201 8.6751,9.7806l4.054 3.5333c0.6945,0.6448 1.278,1.0056 1.8386,1.4428 0.4582,0.3571 0.4171,0.3515 0.8942,0.7153l14.8607 9.5595c3.6364,1.9353 6.3677,3.334 10.4442,4.7137 18.4009,6.2277 32.4592,7.0842 51.7122,3.1637 7.6316,-1.5542 19.122,-6.4593 26.0689,-10.2462 1.7422,-0.9498 2.9945,-2.0227 4.662,-2.9306 1.9784,-1.0768 7.7464,-5.0378 8.3434,-6.8556 3.641,-1.419 5.2765,-3.9774 7.3699,-6.1601 9.1135,-9.5028 8.8333,-9.0031 17.2029,-23.9569 2.5125,-4.4887 5.358,-14.4502 6.5126,-20.6079 1.7821,-9.504 1.0653,-16.3934 0.9598,-25.7534 -3.6936,1.8545 -7.73,4.6738 -11.9494,6.5971 -16.4688,7.5065 -24.5246,9.3764 -42.1394,14.2169 -0.9407,3.961 -1.0599,5.8941 -2.9008,9.5693 -4.3015,8.5894 -12.8449,14.4776 -22.3087,16.2169 -7.4105,1.3618 -15.3873,-0.1594 -20.9208,-3.5311 -8.6668,-5.2811 -10.7656,-11.4055 -12.4248,-12.97 -8.6467,2.9292 -33.7057,4.3115 -44.202,4.0415 -4.4491,-0.1146 -11.713,-1.2154 -15.6578,-0.3875zm92.6279 -39.4208c-12.6532,-3.4748 -22.9785,5.7521 -24.936,15.9314 -1.1669,6.0679 0.6923,12.3852 3.5074,16.5713 2.5566,3.8018 7.3892,7.3089 12.0682,8.4484 25.8472,6.295 37.2448,-33.2934 9.3605,-40.9512zm24.8359 11.8089c12.019,-1.2396 39.7794,-13.003 49.9002,-20.4192 1.8315,-1.3419 2.0234,-1.7985 1.3015,-4.2978 -3.0119,-10.4281 -7.1694,-17.4518 -12.806,-25.7179l-10.5314 -12.7621c-1.5211,-1.3926 -3.2684,-2.2188 -4.5817,-3.5825 -0.5273,-0.5474 -0.3398,-0.5057 -0.9914,-1.1427l-2.9478 -2.4628c-2.7967,-2.2907 -5.9161,-4.3289 -9.5292,-6.2306 -1.5767,-0.8296 -2.9918,-2.1483 -4.6696,-2.8856 -19.381,-8.5165 -35.7683,-13.2023 -58.2772,-9.2012 -7.283,1.2947 -17.3595,3.7409 -24.1909,7.2842 -4.4422,2.304 -15.1459,8.0139 -19.0204,11.8334 -3.2724,3.2261 -1.693,0.1736 -4.2219,3.9228 -0.8372,1.2416 -2.4905,2.8946 -3.607,3.9864 -1.1676,1.1422 -1.1943,0.8293 -2.1204,1.6296 -0.9618,0.8313 -0.871,1.0335 -1.7192,2.128l-2.1094 2.7414c-1.6903,2.4158 -6.2257,8.6411 -7.2793,11.1367 -5.8169,13.7765 -8.9101,16.9517 -10.2261,36.2742 -0.3209,4.7132 -0.4624,9.7586 -0.117,14.6211 0.2335,3.2839 -0.3838,4.2261 2.4489,4.9093 14.4757,3.4919 35.8275,2.4807 50.9653,0.7035 2.1696,-0.2548 11.6432,-1.7255 13.1494,-1.6051 -0.8832,-8.7848 4.2442,-20.4718 7.9929,-24.8379 0.5547,-0.6458 0.3897,-0.3887 0.8702,-0.7498 0.0913,-0.0685 0.2423,-0.1354 0.3349,-0.2027 0.0925,-0.0668 0.2428,-0.1346 0.3336,-0.2032l5.5611 -4.7555c11.3536,-6.3178 26.8317,-5.2848 34.4623,2.1069 5.65,5.4735 3.2141,1.9958 7.2994,7.9434 3.0839,4.4899 2.4726,5.0818 4.3259,9.8357zm12.111 86.0871c-13.7144,7.5819 -34.2332,13.6304 -51.5687,12.732 -9.0714,-0.4702 -18.9233,-2.2628 -27.2995,-5.0517 -3.629,-1.2083 -8.0639,-2.5779 -11.5818,-4.6784 -2.4246,-1.4482 -8.1711,-3.9539 -10.5064,-5.7817 -12.3644,-7.8061 -22.4453,-17.985 -30.5111,-30.2377 -2.8807,-4.3756 -4.9291,-8.0475 -7.1635,-13.4515 -8.8812,-21.4781 -11.1742,-46.0742 -3.6758,-69.2849 4.663,-14.4341 12.1673,-27.7056 22.599,-38.1589 17.9419,-17.9786 45.9141,-29.7907 74.1063,-27.7311 22.352,1.6328 41.5509,9.0523 58.5822,22.6191l12.759 12.1977c6.9241,7.0323 16.9549,25.9617 19.7795,36.6493 6.6091,25.0085 5.4843,46.2903 -5.3014,68.4328 -3.3899,6.9594 -5.5712,9.9965 -9.5405,15.4357 -1.0066,1.3794 -1.0631,1.4117 -2.4489,2.9602 -0.9187,1.0264 -1.2908,1.8712 -2.1414,2.7916 -1.0357,1.1204 -1.67,1.2922 -2.8484,2.526l-9.2386 8.6629c-0.6551,0.4893 -0.834,0.554 -1.5997,1.1304l-12.4003 8.2382z"/>
  <path fill="#D95A32" d="M134.7019 95.7896c-1.8533,-4.7538 -1.2421,-5.3457 -4.3259,-9.8357 -4.0853,-5.9477 -1.6494,-2.4699 -7.2994,-7.9434 -7.6306,-7.3917 -23.1087,-8.4247 -34.4623,-2.1069l-5.5611 4.7555c-0.0908,0.0685 -0.2411,0.1363 -0.3336,0.2032 -0.0925,0.0673 -0.2436,0.1341 -0.3349,0.2027 -0.4805,0.3611 -0.3155,0.104 -0.8702,0.7498 -3.7487,4.3661 -8.8761,16.0531 -7.9929,24.8379 -1.5062,-0.1204 -10.9798,1.3503 -13.1494,1.6051 -15.1378,1.7772 -36.4897,2.7884 -50.9653,-0.7035 -2.8327,-0.6832 -2.2154,-1.6254 -2.4489,-4.9093 -0.3454,-4.8625 -0.2039,-9.9079 0.117,-14.6211 1.316,-19.3225 4.4092,-22.4977 10.2261,-36.2742 1.0536,-2.4956 5.5891,-8.7209 7.2793,-11.1367l2.1094 -2.7414c0.8482,-1.0945 0.7574,-1.2967 1.7192,-2.128 0.926,-0.8002 0.9527,-0.4874 2.1204,-1.6296 1.1165,-1.0918 2.7698,-2.7448 3.607,-3.9864 2.5289,-3.7492 0.9495,-0.6967 4.2219,-3.9228 3.8745,-3.8195 14.5782,-9.5294 19.0204,-11.8334 6.8314,-3.5433 16.9079,-5.9895 24.1909,-7.2842 22.5089,-4.0011 38.8962,0.6847 58.2772,9.2012 1.6778,0.7373 3.0929,2.056 4.6696,2.8856 3.6131,1.9018 6.7325,3.9399 9.5292,6.2306l2.9478 2.4628c0.6516,0.6369 0.4641,0.5953 0.9914,1.1427 1.3133,1.3637 3.0606,2.1899 4.5817,3.5825l10.5314 12.7621c5.6365,8.2661 9.7941,15.2898 12.806,25.7179 0.7219,2.4993 0.53,2.9558 -1.3015,4.2978 -10.1209,7.4162 -37.8813,19.1796 -49.9002,20.4192z"/>
  <path fill="#DAC39C" d="M17.2381 123.4014l2.6462 0.2881 11.804 17.5331c1.1368,1.2724 0.4947,0.6144 1.3312,1.961 0.9226,1.4856 0.5199,0.8514 1.5309,1.6871 0.7258,0.6 0.1797,0.0215 0.8786,0.7143 2.1375,2.1189 3.1015,4.3316 7.1511,7.5133 0.5953,0.4678 1.3698,0.9799 1.8643,1.4213l7.8955 6.7136c3.1649,2.6751 9.4102,6.0321 13.2334,7.8857 18.9524,9.1882 32.669,10.8207 54.1363,9.4621 10.3421,-0.6546 21.0143,-4.7345 30.3459,-8.762 3.4498,-1.4891 5.6429,-3.7918 7.6411,-3.6924 -0.597,1.8178 -6.365,5.7788 -8.3434,6.8556 -1.6675,0.9079 -2.9199,1.9808 -4.662,2.9306 -6.9469,3.7869 -18.4374,8.692 -26.0689,10.2462 -19.253,3.9206 -33.3113,3.064 -51.7122,-3.1637 -4.0765,-1.3796 -6.8079,-2.7784 -10.4442,-4.7137l-14.8607 -9.5595c-0.4771,-0.3638 -0.436,-0.3581 -0.8942,-0.7153 -0.5606,-0.4372 -1.1441,-0.798 -1.8386,-1.4428l-4.054 -3.5333c-3.1025,-2.5605 -6.3156,-6.6735 -8.6751,-9.7806 -7.9109,-10.4166 -12.0988,-17.186 -16.0639,-31.3611l7.1589 1.5123z"/>
  <path fill="#3D2214" d="M116.7637 105.3203c0.2259,-15.6734 -21.8742,-16.6528 -22.3107,-1.5549 -0.1841,6.3712 4.2882,11.8131 10.0425,12.3715 6.4443,0.6257 12.1815,-4.8016 12.2682,-10.8165zm2.829 2.7108c-1.353,6.85 -8.4296,12.9707 -17.0807,10.6601 -6.6989,-1.7889 -12.5237,-8.809 -10.5625,-17.6577 4.109,-18.5407 31.3745,-11.8931 27.6432,6.9976z"/>
 </g>
</svg>
