<?xml version="1.0" encoding="UTF-8"?>
<!DOCTYPE svg PUBLIC "-//W3C//DTD SVG 1.1//EN" "http://www.w3.org/Graphics/SVG/1.1/DTD/svg11.dtd">
<!-- Creator: CorelDRAW 2018 (64 Bit) -->
<svg xmlns="http://www.w3.org/2000/svg" xml:space="preserve" width="80.2437mm" height="79.5365mm" version="1.1" shape-rendering="geometricPrecision" text-rendering="geometricPrecision" image-rendering="optimizeQuality" fill-rule="evenodd" clip-rule="evenodd"
viewBox="0 0 253.8197 251.5828"
 xmlns:xlink="http://www.w3.org/1999/xlink">
 <g id="Camada_x0020_1">
  <metadata id="CorelCorpID_0Corel-Layer"/>
  <path fill="#FEF2D5" d="M203.7711 214.6642c-2.582,-0.1284 -5.4159,2.8471 -9.8737,4.7712 -12.0581,5.2043 -25.8483,10.4762 -39.2121,11.322 -27.7395,1.7555 -45.4637,-0.354 -69.9535,-12.2267 -4.9401,-2.3951 -13.0102,-6.733 -17.0998,-10.1896l-10.2023 -8.6751c-0.6389,-0.5703 -1.6398,-1.232 -2.409,-1.8365 -5.2327,-4.1114 -6.4784,-6.9705 -9.2404,-9.7085 -0.9031,-0.8952 -0.1974,-0.1477 -1.1352,-0.923 -1.3064,-1.0799 -0.786,-0.2603 -1.9782,-2.18 -1.0808,-1.74 -0.2512,-0.8898 -1.7201,-2.534l-15.2528 -22.6558 -3.4193 -0.3723c5.0974,-1.0698 14.4836,0.3527 20.2325,0.5007 13.5631,0.3489 45.9436,-1.4373 57.1166,-5.2223 2.144,2.0215 4.856,9.9353 16.055,16.7594 7.1502,4.3569 17.4575,6.3224 27.0332,4.5628 12.2289,-2.2474 23.2685,-9.8559 28.8267,-20.955 2.3787,-4.7491 2.5327,-7.247 3.7483,-12.3652 22.7614,-6.2547 33.1709,-8.671 54.4514,-18.3707 5.4523,-2.4853 10.6679,-6.1282 15.4407,-8.5246 0.1363,12.0948 1.0625,20.997 -1.2403,33.2778 -1.492,7.9568 -5.1688,20.8288 -8.4155,26.629 -10.815,19.3228 -10.4528,18.6772 -22.2291,30.9564 -2.7051,2.8205 -4.8184,6.1263 -9.5232,7.96z"/>
  <path fill="#FEF2D5" d="M154.5344 139.5947c4.8215,-24.41 -30.4102,-32.9998 -35.7197,-9.0421 -2.5343,11.434 4.9923,20.5052 13.6485,22.8168 11.1788,2.9857 20.323,-4.9234 22.0712,-13.7747zm-12.5686 -31.0773c36.0313,9.8952 21.3036,61.0503 -12.0954,52.916 -6.046,-1.4724 -12.2906,-6.0042 -15.5941,-10.9168 -3.6376,-5.4092 -6.04,-13.5723 -4.5321,-21.413 2.5295,-13.1535 15.8715,-25.0762 32.2217,-20.5862z"/>
  <path fill="#FEF2D5" d="M150.8788 136.0919c-0.112,7.7724 -7.5254,14.7853 -15.8526,13.9768 -7.4355,-0.7215 -13.2145,-7.7534 -12.9767,-15.986 0.564,-19.5091 29.1212,-18.2436 28.8292,2.0092z"/>
  <path fill="#46291A" d="M22.2746 159.4559l-9.2505 -1.9542c5.1236,18.3166 10.5351,27.0639 20.7573,40.5239 3.0489,4.0149 7.2008,9.3296 11.2097,12.6382l5.2384 4.5656c0.8974,0.8332 1.6515,1.2994 2.3758,1.8643 0.5921,0.4615 0.539,0.4542 1.1555,0.9243l19.2026 12.3526c4.6988,2.5008 8.2282,4.3082 13.4957,6.0909 23.7771,8.0473 41.9429,9.154 66.821,4.088 9.8613,-2.0083 24.709,-8.3465 33.6856,-13.2398 2.2512,-1.2273 3.8694,-2.6137 6.0241,-3.7869 2.5564,-1.3915 10.0097,-6.5097 10.7811,-8.8586 4.7048,-1.8337 6.8181,-5.1394 9.5232,-7.96 11.7763,-12.2792 11.4141,-11.6336 22.2291,-30.9564 3.2466,-5.8002 6.9234,-18.6722 8.4155,-26.629 2.3027,-12.2808 1.3766,-21.183 1.2403,-33.2778 -4.7728,2.3964 -9.9885,6.0393 -15.4407,8.5246 -21.2805,9.6997 -31.6899,12.116 -54.4514,18.3707 -1.2156,5.1182 -1.3696,7.6161 -3.7483,12.3652 -5.5582,11.099 -16.5978,18.7076 -28.8267,20.955 -9.5757,1.7596 -19.883,-0.2059 -27.0332,-4.5628 -11.199,-6.8241 -13.911,-14.7379 -16.055,-16.7594 -11.1731,3.785 -43.5535,5.5712 -57.1166,5.2223 -5.749,-0.148 -15.1352,-1.5705 -20.2325,-0.5007zm119.6912 -50.9384c-16.3501,-4.49 -29.6921,7.4327 -32.2217,20.5862 -1.5079,7.8407 0.8945,16.0038 4.5321,21.413 3.3036,4.9126 9.5482,9.4444 15.5941,10.9168 33.399,8.1343 48.1267,-43.0208 12.0954,-52.916zm32.0923 15.2592c15.5306,-1.6018 51.4018,-16.8021 64.4797,-26.3851 2.3666,-1.734 2.6146,-2.3239 1.6818,-5.5535 -3.8919,-13.4749 -9.2641,-22.5508 -16.5475,-33.232l-13.6083 -16.4909c-1.9656,-1.7995 -4.2234,-2.867 -5.9204,-4.6292 -0.6813,-0.7073 -0.439,-0.6535 -1.2811,-1.4765l-3.809 -3.1824c-3.6139,-2.96 -7.6446,-5.5936 -12.3134,-8.0511 -2.0374,-1.072 -3.866,-2.7759 -6.034,-3.7287 -25.0436,-11.0048 -46.2187,-17.0596 -75.3042,-11.8895 -9.4109,1.673 -22.4315,4.8339 -31.2588,9.4125 -5.7401,2.9771 -19.5711,10.3554 -24.5777,15.2908 -4.2284,4.1687 -2.1876,0.2243 -5.4554,5.0689 -1.0818,1.6043 -3.2181,3.7404 -4.6608,5.1511 -1.5088,1.4759 -1.5433,1.0717 -2.7399,2.1057 -1.2428,1.0742 -1.1254,1.3355 -2.2215,2.7497l-2.7257 3.5424c-2.1841,3.1217 -8.0447,11.1658 -9.4061,14.3906 -7.5165,17.8017 -11.5134,21.9045 -13.2139,46.8726 -0.4147,6.0903 -0.5975,12.6097 -0.1512,18.8929 0.3018,4.2433 -0.496,5.4608 3.1644,6.3436 18.7051,4.5122 46.2953,3.2055 65.856,0.9091 2.8035,-0.3293 15.045,-2.2297 16.9913,-2.0741 -1.1413,-11.3515 5.4842,-26.4531 10.3282,-32.0948 0.7168,-0.8344 0.5036,-0.5023 1.1245,-0.9689 0.118,-0.0886 0.3131,-0.1749 0.4327,-0.2619 0.1196,-0.0864 0.3138,-0.174 0.4311,-0.2625l7.186 -6.145c14.6708,-8.1637 34.6712,-6.8288 44.5312,2.7225 7.3008,7.0727 4.1532,2.5789 9.4321,10.2643 3.9849,5.8018 3.1951,6.5666 5.5898,12.7094zm15.6495 111.2393c-17.7213,9.7971 -44.2352,17.6128 -66.6357,16.452 -11.7219,-0.6076 -24.4521,-2.924 -35.2756,-6.5277 -4.6893,-1.5613 -10.4199,-3.3311 -14.9656,-6.0453 -3.1331,-1.8713 -10.5585,-5.1091 -13.5761,-7.471 -15.9769,-10.0868 -29.0032,-23.2397 -39.4256,-39.0723 -3.7223,-5.6541 -6.3692,-10.3987 -9.2565,-17.3816 -11.4761,-27.7535 -14.439,-59.5358 -4.7497,-89.5281 6.0254,-18.6513 15.7222,-35.8004 29.2018,-49.3078 23.184,-23.2315 59.3289,-38.4947 95.7581,-35.8333 28.8827,2.1098 53.691,11.6972 75.6983,29.2278l16.4868 15.7615c8.9472,9.087 21.9087,33.547 25.5586,47.3572 8.5401,32.3153 7.0866,59.8151 -6.8503,88.427 -4.3803,8.9927 -7.1989,12.9172 -12.3279,19.9456 -1.3007,1.7824 -1.3737,1.8242 -3.1644,3.8252 -1.1871,1.3263 -1.6679,2.4179 -2.7671,3.6072 -1.3383,1.4478 -2.1579,1.6698 -3.6806,3.264l-11.9379 11.1939c-0.8464,0.6323 -1.0777,0.7158 -2.0671,1.4607l-16.0234 10.6451z"/>
  <path fill="#D98268" d="M174.0581 123.7766c-2.3948,-6.1428 -1.605,-6.9076 -5.5898,-12.7094 -5.2789,-7.6854 -2.1313,-3.1916 -9.4321,-10.2643 -9.86,-9.5513 -29.8604,-10.8862 -44.5312,-2.7225l-7.186 6.145c-0.1174,0.0886 -0.3116,0.1762 -0.4311,0.2625 -0.1196,0.087 -0.3147,0.1733 -0.4327,0.2619 -0.6209,0.4666 -0.4077,0.1344 -1.1245,0.9689 -4.844,5.6417 -11.4694,20.7434 -10.3282,32.0948 -1.9463,-0.1556 -14.1878,1.7448 -16.9913,2.0741 -19.5607,2.2964 -47.1509,3.6031 -65.856,-0.9091 -3.6604,-0.8828 -2.8626,-2.1003 -3.1644,-6.3436 -0.4463,-6.2832 -0.2635,-12.8027 0.1512,-18.8929 1.7005,-24.968 5.6974,-29.0709 13.2139,-46.8726 1.3614,-3.2248 7.222,-11.2689 9.4061,-14.3906l2.7257 -3.5424c1.096,-1.4142 0.9787,-1.6755 2.2215,-2.7497 1.1966,-1.034 1.2311,-0.6298 2.7399,-2.1057 1.4427,-1.4107 3.5791,-3.5468 4.6608,-5.1511 3.2678,-4.8446 1.227,-0.9002 5.4554,-5.0689 5.0066,-4.9354 18.8376,-12.3137 24.5777,-15.2908 8.8273,-4.5786 21.8479,-7.7395 31.2588,-9.4125 29.0854,-5.1701 50.2606,0.8847 75.3042,11.8895 2.168,0.9527 3.9966,2.6567 6.034,3.7287 4.6688,2.4574 8.6995,5.091 12.3134,8.0511l3.809 3.1824c0.842,0.823 0.5997,0.7693 1.2811,1.4765 1.697,1.7622 3.9548,2.8297 5.9204,4.6292l13.6083 16.4909c7.2834,10.6812 12.6556,19.7571 16.5475,33.232 0.9328,3.2295 0.6848,3.8195 -1.6818,5.5535 -13.0779,9.583 -48.9491,24.7833 -64.4797,26.3851z"/>
  <path fill="#DAC39C" d="M22.2746 159.4559l3.4193 0.3723 15.2528 22.6558c1.4689,1.6442 0.6393,0.7939 1.7201,2.534 1.1922,1.9197 0.6718,1.1001 1.9782,2.18 0.9379,0.7753 0.2322,0.0278 1.1352,0.923 2.762,2.738 4.0077,5.5971 9.2404,9.7085 0.7693,0.6045 1.7701,1.2662 2.409,1.8365l10.2023 8.6751c4.0896,3.4566 12.1596,7.7945 17.0998,10.1896 24.4898,11.8727 42.2139,13.9822 69.9535,12.2267 13.3638,-0.8458 27.154,-6.1178 39.2121,-11.322 4.4578,-1.9241 7.2916,-4.8997 9.8737,-4.7712 -0.7715,2.3489 -8.2247,7.4672 -10.7811,8.8586 -2.1547,1.1732 -3.773,2.5596 -6.0241,3.7869 -8.9766,4.8933 -23.8242,11.2316 -33.6856,13.2398 -24.8782,5.066 -43.0439,3.9593 -66.821,-4.088 -5.2675,-1.7827 -8.7969,-3.5901 -13.4957,-6.0909l-19.2026 -12.3526c-0.6165,-0.47 -0.5634,-0.4628 -1.1555,-0.9243 -0.7244,-0.5649 -1.4784,-1.0312 -2.3758,-1.8643l-5.2384 -4.5656c-4.0089,-3.3086 -8.1608,-8.6233 -11.2097,-12.6382 -10.2222,-13.46 -15.6337,-22.2073 -20.7573,-40.5239l9.2505 1.9542z"/>
  <path fill="#3D2214" d="M150.8788 136.0919c0.292,-20.2528 -28.2652,-21.5183 -28.8292,-2.0092 -0.2379,8.2326 5.5411,15.2645 12.9767,15.986 8.3272,0.8085 15.7406,-6.2044 15.8526,-13.9768zm3.6556 3.5028c-1.7483,8.8513 -10.8925,16.7604 -22.0712,13.7747 -8.6562,-2.3116 -16.1828,-11.3828 -13.6485,-22.8168 5.3096,-23.9577 40.5413,-15.368 35.7197,9.0421z"/>
 </g>
</svg>
