<?xml version="1.0" encoding="UTF-8"?>
<!DOCTYPE svg PUBLIC "-//W3C//DTD SVG 1.1//EN" "http://www.w3.org/Graphics/SVG/1.1/DTD/svg11.dtd">
<!-- Creator: CorelDRAW 2018 (64 Bit) -->
<svg xmlns="http://www.w3.org/2000/svg" xml:space="preserve" width="208.782mm" height="171.57mm" version="1.1" shape-rendering="geometricPrecision" text-rendering="geometricPrecision" image-rendering="optimizeQuality" fill-rule="evenodd" clip-rule="evenodd"
viewBox="0 0 200.3948 164.6782"
 xmlns:xlink="http://www.w3.org/1999/xlink">
 <g id="Camada_x0020_1">
  <metadata id="CorelCorpID_0Corel-Layer"/>
  <path fill="#422515" d="M120.8122 148.5184c-0.1141,0.9816 0.5507,1.1415 1.5698,1.4878 1.7176,0.5839 6.1798,2.0832 7.5366,2.0748 -0.5497,-1.7227 -6.59,-4.5508 -9.1064,-3.5626z"/>
  <path fill="#422515" d="M120.0824 158.2565c1.5108,0.4943 6.8335,-0.3394 8.3455,-0.9607 -0.2265,-0.4844 0.3878,-0.624 -1.932,-0.7644 -1.5478,-0.0936 -3.334,0.0804 -4.8446,0.4637 -1.0885,0.276 -1.4837,0.3245 -1.5688,1.2614z"/>
  <path fill="#452618" d="M54.4875 96.0285c-0.0529,0.989 2.1933,3.9345 2.9799,4.7307 1.4934,1.5117 1.4526,1.8783 3.999,4.0856 0.985,0.8539 0.3702,0.6887 1.843,1.972 1.7941,1.5633 3.3867,3.2941 4.9082,5.0867 0.3923,0.4623 0.591,0.717 0.6846,1.4901l-1.8376 0.2864c0.1536,1.3018 1.4226,2.1048 0.535,3.2951 -0.6154,0.4646 -2.3879,-0.6416 -2.4569,0.0988 -0.1319,1.4136 -0.1428,1.9929 -0.6922,2.5711 -0.6133,0.0022 -5.46,-1.3657 -6.6086,-1.6311 -4.5484,-1.0504 -10.008,-3.5407 -13.4953,-6.6947 -0.6267,-0.5667 -2.3676,-2.2752 -3.1472,-2.4243 -0.1544,1.0936 0.0895,1.1436 0.6457,1.9479 0.6565,0.9491 0.2881,0.5877 1.228,1.3318 0.6146,0.4866 0.7072,0.83 1.2284,1.318 4.4146,4.1341 9.9517,6.0378 16.0812,6.8706 2.1753,0.2955 5.6048,3.2255 6.2668,-1.7555 2.4688,0.2641 3.3948,-1.1864 2.558,-3.5345 0.7307,-0.6121 0.7633,-0.1815 1.1952,-1.0519 0.6544,-1.3191 -0.5611,-2.9743 -1.4103,-3.9506l-2.6827 -3.0682c-0.5708,-0.6041 -0.71,-0.5058 -1.305,-1.0202 -2.7674,-2.3924 -3.9767,-4.6435 -6.7093,-6.899l-2.2427 -2.4333c-0.4352,-0.5937 -0.7186,-0.9155 -1.5652,-0.6216z"/>
  <path fill="#452618" d="M77.7716 65.3287c0.5169,2.0456 3.6764,1.5448 4.0363,0.3418 0.4203,-1.4052 -2.9612,-2.2373 -4.0363,-0.3418z"/>
  <path fill="#E7C477" d="M38.6315 161.0559l-1.9414 0.0913c1.998,1.1912 21.7706,1.2682 23.6357,1.2531 14.6955,-0.12 31.6843,-0.5152 46.0333,-3.9286 2.7359,-0.6508 3.8837,-0.7077 6.0449,-2.4108l0.4783 -0.3698c0.3574,-0.3138 0.5758,-0.4404 0.5807,-1.086 0.0191,-2.5144 -9.4799,-4.3371 -10.1976,-3.9875 2.0073,3.2223 1.9972,4.6796 -2.4597,5.7281 -4.6169,1.0861 -16.6096,-1.2684 -21.0763,-3.6545 -2.6796,-1.4315 -1.5874,-1.1298 -2.5637,-2.4491 -10.6747,-1.0516 -12.495,0.0964 -22.1261,2.0338 -2.644,0.5319 -1.6834,0.1008 -2.2974,0.8732l-2.4484 2.4455c-0.2846,0.2151 -0.5157,0.4467 -0.821,0.6544 -5.8012,3.946 -9.2273,3.8601 -10.8413,4.8071z"/>
  <path fill="#E7C477" d="M142.8291 156.1455l-3.3239 0.4258c-1.2269,0.1824 -11.3222,1.5305 -9.1407,4.1622 1.5284,1.8439 12.5348,3.2471 15.0278,3.3077 2.9398,0.0713 5.672,0.4712 8.5128,0.5381 13.0852,0.3079 27.3656,0.1076 39.8341,-3.7281l2.8596 -1.8918c0.0518,-2.2775 -3.2395,-2.585 -6.0215,-3.1895l-6.2698 -0.817c-0.6459,-0.0621 -1.7386,0.1362 -1.8932,0.1027 -0.9157,0.7167 -3.1689,1.6992 -4.1196,2.267 -1.3794,0.8236 -3.1183,1.3607 -4.5412,1.8344 -3.2843,1.0935 -7.1473,1.7964 -10.7042,1.9808 -6.7973,0.3523 -14.8428,-2.0194 -20.2202,-4.9923z"/>
  <path fill="#E7C477" d="M33.8813 160.5539c-1.4309,-0.9267 -1.872,-0.6831 -2.8668,-2.0983 -2.5198,-3.584 4.6274,-7.7705 5.0303,-8.3744l-0.12 -0.3234c-2.1357,-0.0573 -0.777,0.2673 -2.2829,0.6251 -4.7588,1.1308 -9.528,1.4075 -12.8243,2.2835 -2.1875,0.5815 -7.2977,2.4207 -3.5781,4.8971 1.2857,0.8559 4.2696,1.4866 5.8422,1.7991 1.9486,0.3871 9.6694,1.4261 10.7995,1.1911z"/>
  <path fill="#FFCC43" d="M26.5652 121.5889c0.349,-0.2745 0.4487,-0.4723 1.0689,-0.8126 0.4443,0.1312 0.3535,0.1327 0.6526,0.2465 0.7518,0.286 -0.1074,0.1302 0.7653,0.2612l0.9398 -6.2123c-0.5223,-0.2013 -2.3414,-1.3179 -2.6764,-1.5468 0.0372,-1.4649 2.0761,-4.0852 3.0962,-5.4465 0.7659,-1.0221 1.9089,-2.542 2.248,-3.6922 0.239,-0.8103 0.4838,-1.4177 0.7735,-2.2041 2.0258,-5.4992 3.1438,-7.5371 5.1842,-12.475 0.5791,-1.4013 1.6736,-2.6643 1.1379,-3.9657 -0.161,-0.391 -0.7037,-1.9273 -0.868,-2.1133 -0.154,-0.1744 -1.4785,-0.7874 -1.9085,-1.0559 -3.3278,-2.0778 -11.8465,-6.1109 -15.6993,-7.8972 -3.0988,-1.4367 -14.123,-5.754 -17.4546,-6.1329 -0.6917,1.3948 -2.7932,24.1502 -1.1989,24.9318l5.5599 1.2586c2.6585,0.5598 17.2875,3.5416 17.7182,4.3967 0.4499,0.8933 -5.7395,10.367 -6.8009,12.4998 -0.7172,1.4411 -1.9003,3.0623 -2.3494,4.3727l8.4447 3.4052c1.2862,0.5463 1.8406,0.4447 1.3668,2.1819z"/>
  <path fill="#FFCC43" d="M85.8122 37.968c0.8495,0.4327 1.7574,0.7837 2.6113,1.2143 1.473,0.7427 5.9359,3.9654 6.6693,5.2442 0.2093,-0.2681 0.3161,-0.3306 0.5411,-0.5759l4.1508 -6.0571c1.32,-2.4623 2.4987,-5.0828 3.6643,-8.0255 0.505,-1.2747 1.2408,-3.073 0.9106,-4.3882 -0.6747,-2.6874 -2.4953,-7.0329 -4.2571,-8.725l-2.4097 -2.0714c-2.8879,3.9006 -4.3985,6.312 -6.7679,10.9354 -0.9906,1.9331 -2.0346,3.9365 -2.8259,6.0839 -0.579,1.5711 -2.0677,4.9754 -2.2866,6.3654z"/>
  <path fill="#FEF2D5" d="M138.5616 149.9698c0.7835,-0.039 1.6434,0.8639 2.9961,1.4478 3.659,1.5792 7.8435,3.179 11.8987,3.4356 8.4174,0.5327 13.7957,-0.1074 21.227,-3.7101 1.4991,-0.7268 3.9479,-2.0431 5.1888,-3.092l3.0958 -2.6324c0.1939,-0.1731 0.4976,-0.3739 0.731,-0.5573 1.5878,-1.2476 1.9658,-2.1152 2.8039,-2.946 0.274,-0.2716 0.0599,-0.0448 0.3445,-0.2801 0.3964,-0.3277 0.2385,-0.079 0.6003,-0.6615 0.328,-0.528 0.0762,-0.27 0.522,-0.7689l4.6284 -6.8748 1.0376 -0.113c-1.5468,-0.3246 -4.395,0.107 -6.1394,0.1519 -4.1157,0.1059 -13.9413,-0.4361 -17.3317,-1.5847 -0.6506,0.6134 -1.4735,3.0148 -4.8718,5.0856 -2.1697,1.3221 -5.2974,1.9185 -8.2031,1.3846 -3.7108,-0.682 -7.0607,-2.9907 -8.7473,-6.3587 -0.7218,-1.4411 -0.7685,-2.1991 -1.1374,-3.7522 -6.9068,-1.898 -10.0655,-2.6312 -16.523,-5.5745 -1.6545,-0.7541 -3.2371,-1.8596 -4.6854,-2.5867 -0.0414,3.6701 -0.3224,6.3714 0.3763,10.098 0.4528,2.4144 1.5685,6.3204 2.5536,8.0804 3.2818,5.8634 3.1719,5.6675 6.7453,9.3936 0.8208,0.8559 1.4621,1.859 2.8898,2.4154z"/>
  <path fill="#FEF2D5" d="M153.5022 127.1904c-1.4631,-7.4071 9.2278,-10.0136 10.839,-2.7438 0.769,3.4696 -1.5149,6.2222 -4.1416,6.9236 -3.3921,0.906 -6.1669,-1.494 -6.6974,-4.1799zm3.8139 -9.4302c-10.9335,3.0026 -6.4644,18.5254 3.6703,16.0571 1.8346,-0.4468 3.7295,-1.8219 4.732,-3.3127 1.1038,-1.6414 1.8328,-4.1184 1.3752,-6.4977 -0.7676,-3.9914 -4.8161,-7.6092 -9.7775,-6.2468z"/>
  <path fill="#FEF2D5" d="M154.6115 126.1275c0.034,2.3585 2.2835,4.4865 4.8104,4.2412 2.2563,-0.2189 4.0099,-2.3527 3.9377,-4.8509 -0.1711,-5.9199 -8.8367,-5.5359 -8.7481,0.6097z"/>
  <path fill="#48291A" d="M82.686 82.8833c-1.5412,0.821 -9.0338,3.421 -10.139,0.6755 -0.4516,-1.1218 -0.1718,-2.6567 0.4088,-3.746 0.4644,-0.8713 0.5636,-0.6535 1.009,-1.0993 0.8082,-0.809 -0.0179,-0.5858 1.1889,-1.1444 2.7307,-1.2639 4.248,0.3151 4.9686,0.7409 1.0074,0.5951 1.6854,1.3832 2.1793,2.5005 0.3024,0.6842 0.3836,1.2819 0.3844,2.0728zm-3.7089 -10.4191c-1.7587,0.2612 -3.7381,1.9586 -4.41,2.8016 -1.9198,2.4088 -5.4284,6.9616 -2.833,9.7362 1.5399,1.6459 3.0155,1.401 5.5208,0.8554 4.5032,-0.9808 8.1246,-0.4836 7.8986,-6.0588 -0.1471,-3.6279 -2.5628,-7.8709 -6.1764,-7.3344z"/>
  <path fill="#46291A" d="M30.9287 122.4152c0.0904,-0.6415 0.1381,-1.4979 0.2535,-2.2737 0.0446,-0.2998 0.1152,-0.9076 0.1638,-1.1537 0.035,-0.177 0.0666,-0.3324 0.1364,-0.5108 0.1823,-0.4671 -0.009,-0.1483 0.2885,-0.4681 0.2485,0.3255 0.4436,0.4788 0.6663,0.7562 0.4518,0.5627 1.4549,1.8847 1.5764,2.4444 0.3368,1.5513 -1.8507,1.5364 -3.085,1.2058zm-1.8768 -1.1313c0.0656,1.0239 -1.1419,6.8214 -0.8498,9.5523 -0.726,-0.073 -5.515,-2.1249 -5.9871,-2.5772l4.2425 -6.5405c0.0164,-0.0772 0.0714,-0.0868 0.1077,-0.1297 0.4738,-1.7372 -0.0806,-1.6355 -1.3668,-2.1819l-8.4447 -3.4052c0.4491,-1.3104 1.6322,-2.9316 2.3494,-4.3727 1.0614,-2.1327 7.2507,-11.6064 6.8009,-12.4998 -0.4307,-0.8551 -15.0596,-3.8369 -17.7182,-4.3967l-5.5599 -1.2586c-1.5943,-0.7817 0.5073,-23.537 1.1989,-24.9318 3.3316,0.3789 14.3558,4.6963 17.4546,6.1329 3.8528,1.7862 12.3714,5.8193 15.6993,7.8972 0.43,0.2685 1.7546,0.8815 1.9085,1.0559 0.1642,0.1859 0.707,1.7222 0.868,2.1133 0.5357,1.3014 -0.5588,2.5645 -1.1379,3.9657 -2.0404,4.9379 -3.1584,6.9757 -5.1842,12.475 -0.2898,0.7864 -0.5345,1.3938 -0.7735,2.2041 -0.3391,1.1502 -1.4821,2.6701 -2.248,3.6922 -1.0201,1.3612 -3.059,3.9816 -3.0962,5.4465 0.335,0.2288 2.154,1.3455 2.6764,1.5468l-0.9398 6.2123zm73.0831 -40.5132c-0.904,-0.5997 -1.9401,-1.7898 -2.2972,-2.8153 -0.4743,-1.3623 -0.6108,-3.2292 -0.3763,-4.7594 0.354,-2.3103 2.1346,-5.5326 3.931,-6.4375 0.1754,1.4497 1.6383,3.4565 1.0452,7.5282 -0.4942,3.3917 -1.2145,3.8665 -2.3026,6.4839zm-3.1482 60.2385c-0.2497,1.1654 -0.0411,0.4542 -0.8587,1.6201 -0.8457,1.206 -1.5651,1.9429 -2.7257,2.8044 -0.7019,0.521 -1.3849,1.0965 -2.3211,1.4845 -0.4657,0.1931 -0.9214,0.3382 -1.4019,0.5129 -1.3122,0.4768 -1.0426,0.1209 -1.1577,1.1213 2.9075,0.4705 3.042,-1.3328 5.6288,0.2961 1.6633,0.4653 5.5344,2.7605 6.4235,3.9958 0.6009,0.8351 0.3426,0.5336 -0.0046,0.8752 -0.4104,-0.3358 -0.9111,-1.4369 -2.3401,-2.2209 -0.436,-0.2391 -0.8848,-0.394 -1.3529,-0.2096 0.0816,1.4254 0.265,0.1361 2.1728,2.199 0.3459,0.374 0.3111,0.145 0.6694,0.7003l-1.252 0.5175c-0.3451,-0.8353 -0.9792,-1.3449 -1.7683,-1.8591 -0.803,-0.5233 -1.7855,-1.3022 -2.5048,-0.6769 0.1027,1.0036 2.3218,1.6349 3.0188,2.5745 -2.9998,0.2739 -15.38,-1.6116 -17.3707,-3.1985 -1.0009,-0.3708 -1.9562,-0.6958 -2.5786,-1.3639 1.1202,0.0721 5.1818,0.0448 5.6434,-0.8166 -0.2922,-0.61 0.1406,-0.2404 -0.6939,-0.516 -0.2235,-0.0739 -0.8443,-0.1496 -1.0942,-0.1735 -2.4856,-0.2377 -5.0571,-0.1591 -7.4376,-0.4421 -7.0482,-0.8378 -11.7291,-0.1208 -18.5313,1.66 -2.8575,0.7482 -5.8868,1.2101 -8.7165,1.7899 0.1907,0.6225 -0.07,0.6493 0.8327,0.8694 0.2928,0.0714 1.283,0.0086 1.6566,-0.0263 -0.0387,0.0599 -0.1061,0.0661 -0.1332,0.1671 -0.0265,0.0982 -0.0964,0.1215 -0.1327,0.1598 -1.9127,2.0167 -3.5446,2.4663 -4.9046,3.4884l-4.2744 1.8936c-1.3396,0.5097 -3.5303,1.1082 -4.9883,0.9794 0.5715,-0.2895 0.6855,-0.6745 1.0983,-1.2465 0.5172,-0.7167 0.7013,-0.6201 0.7969,-1.1135 0.1653,-0.8524 0.0657,-0.327 -0.1037,-0.628 -1.5589,-0.3686 -2.5361,4.2336 -4.694,2.2185 -0.0424,-1.215 2.0155,-2.1545 1.9449,-3.6341 -1.0549,-0.0379 -0.2909,-0.4832 -1.7999,1.2283 -0.6481,0.735 -0.4742,0.9896 -1.2018,1.7004 -1.0318,-1.4587 0.7283,-2.9003 1.5355,-3.7131 0.9626,-0.9692 1.6228,-1.786 3.5492,-2.6161 1.5287,-0.6586 1.1661,-0.5844 2.8845,0.072 1.2309,0.3344 2.8204,0.7222 3.9881,0.5087 -0.0981,-1.5682 -0.1239,-0.4205 -3.1425,-1.75 -1.1701,-0.5153 -2.2717,-1.0775 -3.2285,-1.6536 -0.4641,-0.2795 -0.2087,-0.0892 -0.646,-0.4168 -0.9504,-0.7121 -1.8688,-1.4283 -2.5396,-2.3427 -0.5553,-0.7569 -1.0612,-0.9907 -1.6274,-2.1853 -3.6171,-6.6566 -3.6388,-12.1952 -2.5318,-20.1542 0.0524,-0.0089 7.1286,0.7544 3.1818,-4.3085 -1.9866,-2.5485 -2.6064,-0.8277 -1.9255,-4.1958l1.9646 -8.0313c2.1498,-7.344 3.2273,-8.804 5.6588,-14.7312 0.1845,-0.4496 1.3313,-3.098 1.74,-3.3464l1.1457 -0.3755c-0.1024,-0.9868 -0.9992,-3.058 -1.3943,-4.1385 -1.4846,-4.0597 -2.8255,-9.3365 -2.9482,-13.6116 -0.1372,-4.7775 1.1286,-14.9008 3.4706,-18.3607 0.9276,0.2239 1.8843,0.503 2.8418,0.2606 -0.2019,-1.3135 -1.8345,-1.9989 -3.5559,-3.1819 -0.5122,-0.352 -0.7233,-0.4055 -1.0801,-0.6372l-6.3818 -4.6628c-0.3437,-0.2788 -0.6157,-0.4096 -0.9812,-0.7314l-2.3946 -2.2635c-0.863,-0.7326 -2.6428,-2.0067 -2.9262,-3.4378 -0.911,-4.5985 -0.717,-13.5213 1.0854,-16.835l10.1361 7.9348 4.2399 4.6849 6.2168 8.6573c0.3958,0.5808 0.7945,1.1805 1.1444,1.8332 0.8731,1.6286 0.6165,1.4781 1.4344,1.542 0.5357,-0.7416 0.1256,-1.1654 0.0177,-2.1199 3.881,-2.3796 10.6888,-4.8994 15.8995,-5.3387 5.8073,-0.4895 13.2271,-0.1083 18.4861,2.2099 3.7501,1.6531 5.7344,3.3296 8.532,6.0968 4.8128,4.7608 6.0259,14.9819 8.3048,19.1405 -2.1677,1.7874 -3.778,2.3266 -4.6455,7.6943 -0.9227,5.7097 1.8205,7.0338 3.0797,8.5708 0.3627,0.4427 -0.0841,-0.3507 0.3193,0.4704l-3.8174 4.3558c-1.5433,1.5846 -4.0048,3.0828 -4.0252,4.1156 0.9975,0.2404 1.9519,-0.142 2.7039,-0.7084 2.0724,1.6475 4.7305,4.9579 9.1581,4.0241 1.6101,-0.3395 3.4755,-1.2242 4.9155,-1.8868l4.494 -1.7795c0.1338,0.7347 -0.0607,0.3636 -0.1708,0.9962 -0.3963,2.2751 1.5146,-0.0922 3.2718,0.0753 0.0186,1.4172 -0.4544,1.633 -0.5728,2.6597 -0.1695,1.4675 0.9437,0.5639 1.9241,1.1177 -0.1475,1.1729 -2.8804,4.8774 -3.5259,5.7403l-1.1882 1.3533c-1.4901,1.9041 -2.5357,2.5379 -4.1892,4.0961 -3.4504,3.2517 -8.3291,4.4549 -12.8702,5.1016l-1.5693 -8.2287c-1.1734,0.2634 -0.9698,0.9146 -0.9535,2.1919 0.0257,2.0106 0.5469,5.8325 1.0189,7.6717 0.8108,3.1601 1.6442,5.8582 2.6103,8.8834 0.9667,3.0273 1.8299,6.3096 1.9815,9.454 0.1218,2.5261 -0.0761,7.6778 -1.6455,9.4993zm-13.1746 -103.0413c0.2189,-1.39 1.7076,-4.7942 2.2866,-6.3654 0.7913,-2.1474 1.8353,-4.1508 2.8259,-6.0839 2.3694,-4.6234 3.88,-7.0348 6.7679,-10.9354l2.4097 2.0714c1.7619,1.6922 3.5825,6.0376 4.2571,8.725 0.3302,1.3153 -0.4056,3.1135 -0.9106,4.3882 -1.1656,2.9427 -2.3444,5.5632 -3.6643,8.0255l-4.1508 6.0571c-0.225,0.2453 -0.3317,0.3078 -0.5411,0.5759 -0.7334,-1.2788 -5.1963,-4.5015 -6.6693,-5.2442 -0.854,-0.4306 -1.7618,-0.7816 -2.6113,-1.2143zm-49.7674 112.1132c-0.4028,0.6039 -7.5501,4.7904 -5.0303,8.3744 0.9949,1.4152 1.4359,1.1716 2.8668,2.0983 1.8122,0.3875 3.2469,0.25 4.7502,0.5021 1.614,-0.947 5.0401,-0.8612 10.8413,-4.8071 0.3053,-0.2077 0.5364,-0.4393 0.821,-0.6544l2.4484 -2.4455c0.614,-0.7724 -0.3466,-0.3412 2.2974,-0.8732 9.6311,-1.9374 11.4513,-3.0854 22.1261,-2.0338 0.9763,1.3193 -0.1159,1.0176 2.5637,2.4491 4.4668,2.3861 16.4594,4.7407 21.0763,3.6545 4.4569,-1.0485 4.4669,-2.5057 2.4597,-5.7281l-6.9731 -3.6629c1.8459,-0.7249 4.1284,-4.3593 4.9576,-6.1144 1.3534,-2.8647 1.57,-6.4609 1.3387,-9.6574 -0.5288,-7.3087 -3.8648,-13.2871 -4.6202,-18.0148 5.9287,0.2986 12.8391,-3.4524 16.7538,-7.9487 0.2283,-0.2623 0.3741,-0.4574 0.6003,-0.6833 0.3738,-0.3733 0.3705,-0.2777 0.7424,-0.7255 0.8507,-1.0245 1.5223,-2.0175 2.3809,-3.1615 0.8944,-1.1919 2.9571,-4.2041 2.6373,-5.7814 -0.1628,-0.8028 -0.4558,-0.8334 -1.0152,-1.213l-0.2375 -0.1735c-0.0231,-0.0169 -0.0789,-0.0568 -0.1129,-0.0912 1.0828,-2.9825 -0.5567,-3.5699 -3.0114,-3.6311 -1.7755,-3.0905 -4.1491,-0.3458 -9.2874,1.5652 -2.1063,0.7833 -3.1009,1.3559 -5.4306,0.4175 -1.6991,-0.6844 -3.0323,-1.4792 -4.2897,-2.6033 0.2966,-0.6005 1.3733,-1.272 1.9002,-1.8022 4.8709,-4.9024 8.8616,-12.3633 6.2008,-19.5908 -0.7371,-2.0026 -1.6382,-3.4127 -2.3615,-5.3035 -2.0582,-5.3819 -2.7351,-12.0262 -6.8712,-16.4577 1.0594,-1.6058 2.5209,-2.9968 4.4237,-6.1516 2.3672,-3.9248 3.871,-7.7156 5.4371,-12.4316 1.5109,-4.5496 4.5869,-21.4458 0.7773,-24.0535 -1.1736,-0.435 -3.4173,1.7756 -4.3321,2.4529 -1.012,0.7492 -0.669,0.9811 -1.8247,1.7799 -1.1009,0.761 -1.6156,1.9287 -2.5079,2.8108 -5.6328,5.5682 -13.3557,20.7737 -14.5702,27.0044 -11.0168,-2.8088 -19.8974,-2.2811 -29.8731,2.5123 -1.1738,0.564 -2.2675,1.4111 -3.2912,1.8552 -0.9986,-1.299 -2.022,-3.4986 -3.3156,-5.2103l-4.6436 -6.0062 -6.475 -6.2697c-2.5109,-2.4068 -7.9682,-5.9106 -11.6466,-7.7218 -2.381,-1.1724 -10.0201,-5.4163 -12.5439,-3.251 -0.9912,2.6794 2.5969,10.7116 3.7181,12.7384 0.9794,1.7703 2.0278,3.6635 3.0572,5.2396 0.4912,0.7523 1.1553,1.6065 1.6922,2.3311 0.4015,0.542 0.4138,0.6777 0.8781,1.2597l3.7309 4.5671c2.6633,2.4255 4.1382,4.4118 7.4594,6.9885 1.4849,1.1521 6.1301,4.437 7.4175,5.0119 -0.9254,2.1352 -1.672,3.7182 -2.4282,6.3307 -0.5991,2.07 -1.2017,5.2128 -1.3613,7.3567 -0.4082,5.4828 0.0166,10.734 1.8066,15.7959 -12.6496,-6.7745 -19.8828,-10.2905 -33.4689,-14.3573 -2.6446,-0.7916 -2.9301,1.1946 -3.2177,3.4246 -0.4374,3.3918 -2.7884,23.5355 -0.4302,25.1375 0.3075,0.2089 20.9209,4.888 22.4729,5.0662 -1.5226,3.2741 -9.046,14.0275 -8.8629,16.7186 0.7423,0.3415 1.4285,0.7523 2.1918,1.1059l7.5842 3.1284c-0.8117,1.461 -4.5454,6.5466 -4.5652,7.9673 0.2583,0.7861 7.6581,3.7906 8.4103,3.9756 0.0757,3.5447 0.9714,7.3126 2.4854,10.1025 0.5968,1.0999 1.7174,3.0418 2.5913,3.8092l1.6156 1.5581c0.5644,0.4177 1.1482,0.7178 1.7037,1.284l-0.6167 0.2377z"/>
  <path fill="#46291A" d="M193.6357 133.2172l2.807 -0.593c-1.5547,5.5581 -3.1968,8.2124 -6.2987,12.2968 -0.9252,1.2183 -2.1851,2.831 -3.4015,3.835l-1.5896 1.3854c-0.2723,0.2528 -0.5011,0.3943 -0.7209,0.5657 -0.1797,0.14 -0.1636,0.1378 -0.3506,0.2805l-5.8269 3.7483c-1.4258,0.7588 -2.4968,1.3073 -4.0952,1.8482 -7.215,2.4419 -12.7273,2.7777 -20.2765,1.2405 -2.9924,-0.6094 -7.4978,-2.5327 -10.2217,-4.0176 -0.6831,-0.3724 -1.1742,-0.7931 -1.828,-1.1491 -0.7757,-0.4222 -3.0374,-1.9753 -3.2715,-2.6881 -1.4276,-0.5564 -2.0689,-1.5595 -2.8898,-2.4154 -3.5734,-3.7261 -3.4635,-3.5302 -6.7453,-9.3936 -0.9852,-1.76 -2.1009,-5.666 -2.5536,-8.0804 -0.6988,-3.7265 -0.4177,-6.4279 -0.3763,-10.098 1.4483,0.7272 3.0309,1.8326 4.6854,2.5867 6.4574,2.9433 9.6161,3.6765 16.523,5.5745 0.3689,1.5531 0.4156,2.3111 1.1374,3.7522 1.6866,3.3679 5.0365,5.6767 8.7473,6.3587 2.9057,0.534 6.0334,-0.0625 8.2031,-1.3846 3.3983,-2.0707 4.2212,-4.4721 4.8718,-5.0856 3.3904,1.1485 13.2161,1.6905 17.3317,1.5847 1.7445,-0.0449 4.5927,-0.4766 6.1394,-0.1519zm-36.3196 -15.457c4.9614,-1.3625 9.0099,2.2554 9.7775,6.2468 0.4576,2.3792 -0.2714,4.8563 -1.3752,6.4977 -1.0024,1.4907 -2.8973,2.8659 -4.732,3.3127 -10.1347,2.4683 -14.6038,-13.0544 -3.6703,-16.0571zm-9.7382 4.6303c-4.7127,-0.4861 -15.5976,-5.0985 -19.566,-8.0064 -0.7181,-0.5262 -0.7934,-0.7052 -0.5103,-1.6852 1.181,-4.0889 2.8111,-6.8429 5.0212,-10.0841l4.1294 -5.0041c0.5964,-0.546 1.2816,-0.87 1.7965,-1.4047 0.2067,-0.2146 0.1332,-0.1983 0.3887,-0.448l1.1558 -0.9657c1.0966,-0.8982 2.3197,-1.6974 3.7364,-2.4431 0.6182,-0.3253 1.1731,-0.8423 1.831,-1.1314 7.5993,-3.3393 14.0248,-5.1766 22.8506,-3.6078 2.8557,0.5077 6.8067,1.4668 9.4853,2.8562 1.7418,0.9034 5.9387,3.1423 7.458,4.6399 1.2831,1.265 0.6638,0.0681 1.6554,1.5381 0.3283,0.4868 0.9765,1.135 1.4143,1.5631 0.4578,0.4479 0.4683,0.3252 0.8314,0.639 0.3771,0.326 0.3415,0.4052 0.6741,0.8344l0.8271 1.0749c0.6628,0.9473 2.4411,3.3882 2.8542,4.3667 2.2808,5.4018 3.4937,6.6468 4.0097,14.2232 0.1258,1.8481 0.1813,3.8264 0.0459,5.733 -0.0916,1.2876 0.1505,1.657 -0.9602,1.9249 -5.6759,1.3692 -14.0481,0.9727 -19.9836,0.2759 -0.8507,-0.0999 -4.5653,-0.6766 -5.1559,-0.6294 0.3463,-3.4445 -1.6642,-8.027 -3.134,-9.739 -0.2175,-0.2532 -0.1528,-0.1524 -0.3412,-0.294 -0.0358,-0.0269 -0.095,-0.0531 -0.1313,-0.0795 -0.0363,-0.0262 -0.0952,-0.0528 -0.1308,-0.0797l-2.1805 -1.8647c-4.4518,-2.4772 -10.5208,-2.0722 -13.5128,0.8261 -2.2154,2.1462 -1.2603,0.7825 -2.8621,3.1146 -1.2092,1.7605 -0.9695,1.9926 -1.6962,3.8566zm-4.7488 33.755c5.3774,2.9729 13.4229,5.3445 20.2202,4.9923 3.5569,-0.1844 7.4199,-0.8873 10.7042,-1.9808 1.4229,-0.4738 3.1619,-1.0108 4.5412,-1.8344 0.9507,-0.5678 3.2039,-1.5503 4.1196,-2.267 4.8481,-3.0608 8.8009,-7.052 11.9635,-11.8563 1.1295,-1.7157 1.9327,-3.1554 2.8088,-5.2744 3.4824,-8.4216 4.3814,-18.0658 1.4413,-27.1668 -1.8284,-5.6596 -4.7708,-10.8634 -8.8611,-14.9622 -7.0351,-7.0495 -18.003,-11.681 -29.0573,-10.8734 -8.7643,0.6402 -16.2922,3.5494 -22.9702,8.869l-5.0028 4.7827c-2.715,2.7574 -6.6481,10.1797 -7.7556,14.3703 -2.5914,9.8059 -2.1504,18.1506 2.0787,26.8327 1.3292,2.7288 2.1845,3.9197 3.7408,6.0524 0.3947,0.5409 0.4169,0.5535 0.9602,1.1607 0.3602,0.4025 0.5061,0.7337 0.8397,1.0946 0.4061,0.4393 0.6548,0.5067 1.1169,0.9904l3.6225 3.3967c0.2569,0.1919 0.327,0.2172 0.6272,0.4432l4.8622 3.2302z"/>
  <path fill="#46291A" d="M137.2508 0.1094c-3.5355,0.3632 -6.728,2.4944 -8.917,4.5684 -1.3816,1.309 -2.6734,2.8775 -3.3236,4.9806 -1.2372,4.0015 2.3818,4.0893 5.3204,5.0751 3.3165,1.1125 2.9126,-2.762 5.903,-4.7014 2.5218,-1.6356 5.4291,-2.0708 7.943,-0.0268 2.0461,1.6638 3.3882,3.9813 1.666,7.5006 -1.446,2.9548 -4.7735,4.1802 -7.736,5.8594 -2.8024,1.5884 -4.769,5.1469 -5.478,8.1895 -0.5143,2.2068 0.5008,2.7113 2.3292,3.1971 0.9332,0.248 3.4874,1.0625 4.2473,0.9942 1.7803,-0.1599 1.6969,-1.646 2.3839,-3.1515 2.0332,-4.4552 5.7562,-4.2875 9.0287,-7.3389l2.6639 -2.8639c7.7783,-10.2408 -1.7959,-23.7444 -16.0309,-22.2822z"/>
  <path fill="#46291A" d="M60.8723 58.7152c2.1711,-0.8016 2.9133,3.7782 0.8584,4.3672 -2.1492,0.6162 -3.3468,-3.4486 -0.8584,-4.3672zm-1.5806 -2.0286c-6.8596,1.0126 -7.22,13.8531 1.2639,12.2597 3.1406,-0.5899 5.1168,-3.1241 4.8898,-6.7904 -0.1949,-3.1491 -2.7876,-5.9663 -6.1537,-5.4693z"/>
  <path fill="#46291A" d="M132.8294 38.8444c-6.4521,1.887 -4.0616,11.7235 2.7795,10.116 1.2106,-0.2845 2.4362,-1.3218 2.9903,-2.1339 2.5759,-3.7756 -0.9727,-9.385 -5.7698,-7.9821z"/>
  <path fill="#46291A" d="M91.2806 60.1935c-3.0025,0.0681 -2.4542,-3.6279 -1.0003,-4.0675 1.1495,-0.3476 1.8469,0.5939 1.9686,1.5706 0.1689,1.3543 -0.3489,1.773 -0.9683,2.4969zm-0.7726 -5.8657c-5.2204,1.1727 -3.0447,13.261 3.1328,11.5569 5.3112,-1.4652 2.8703,-12.9056 -3.1328,-11.5569z"/>
  <path fill="#D95A32" d="M147.5778 122.3905c0.7267,-1.864 0.487,-2.0961 1.6962,-3.8566 1.6019,-2.3321 0.6467,-0.9685 2.8621,-3.1146 2.992,-2.8983 9.061,-3.3033 13.5128,-0.8261l2.1805 1.8647c0.0356,0.0269 0.0945,0.0535 0.1308,0.0797 0.0363,0.0264 0.0955,0.0526 0.1313,0.0795 0.1884,0.1416 0.1237,0.0408 0.3412,0.294 1.4699,1.712 3.4803,6.2945 3.134,9.739 0.5906,-0.0472 4.3052,0.5294 5.1559,0.6294 5.9356,0.6968 14.3077,1.0933 19.9836,-0.2759 1.1107,-0.2679 0.8686,-0.6373 0.9602,-1.9249 0.1354,-1.9066 0.08,-3.8849 -0.0459,-5.733 -0.516,-7.5764 -1.7288,-8.8214 -4.0097,-14.2232 -0.4131,-0.9785 -2.1915,-3.4195 -2.8542,-4.3667l-0.8271 -1.0749c-0.3326,-0.4291 -0.297,-0.5084 -0.6741,-0.8344 -0.3631,-0.3138 -0.3736,-0.1911 -0.8314,-0.639 -0.4378,-0.4281 -1.086,-1.0763 -1.4143,-1.5631 -0.9916,-1.4701 -0.3723,-0.2732 -1.6554,-1.5381 -1.5192,-1.4976 -5.7162,-3.7365 -7.458,-4.6399 -2.6786,-1.3894 -6.6296,-2.3485 -9.4853,-2.8562 -8.8258,-1.5688 -15.2513,0.2685 -22.8506,3.6078 -0.6579,0.2891 -1.2127,0.8062 -1.831,1.1314 -1.4167,0.7457 -2.6398,1.5448 -3.7364,2.4431l-1.1558 0.9657c-0.2555,0.2497 -0.182,0.2334 -0.3887,0.448 -0.5149,0.5347 -1.2001,0.8587 -1.7965,1.4047l-4.1294 5.0041c-2.2101,3.2412 -3.8403,5.9952 -5.0212,10.0841 -0.2831,0.98 -0.2078,1.159 0.5103,1.6852 3.9684,2.9079 14.8534,7.5204 19.566,8.0064z"/>
  <path fill="#D95A32" d="M45.2123 79.1466c0.3357,3.1029 2.9255,6.4687 6.4445,6.0207 3.7084,-0.4721 5.1478,-4.1103 4.8027,-7.6796 -0.809,-8.3694 -12.2647,-7.7467 -11.2472,1.6589z"/>
  <path fill="#FECB42" d="M57.4674 100.7592c-0.7866,-0.7962 -3.0328,-3.7417 -2.9799,-4.7307 0.8466,-0.2939 1.13,0.0279 1.5652,0.6216l2.2427 2.4333c2.7326,2.2555 3.9419,4.5066 6.7093,6.899 0.595,0.5144 0.7342,0.4161 1.305,1.0202l2.6827 3.0682c0.8492,0.9762 2.0647,2.6315 1.4103,3.9506 -0.4319,0.8704 -0.4645,0.4398 -1.1952,1.0519 0.8368,2.348 -0.0893,3.7986 -2.558,3.5345 -0.662,4.981 -4.0916,2.0511 -6.2668,1.7555 -6.1295,-0.8328 -11.6665,-2.7366 -16.0812,-6.8706 -0.5212,-0.4881 -0.6138,-0.8314 -1.2284,-1.318 -0.9399,-0.7441 -0.5715,-0.3827 -1.228,-1.3318 -0.5562,-0.8042 -0.8001,-0.8542 -0.6457,-1.9479 0.7796,0.1492 2.5205,1.8577 3.1472,2.4243 3.4873,3.154 8.9469,5.6443 13.4953,6.6947 1.1486,0.2654 5.9953,1.6333 6.6086,1.6311 0.5494,-0.5782 0.5603,-1.1575 0.6922,-2.5711 0.069,-0.7404 1.8414,0.3658 2.4569,-0.0988 0.8876,-1.1903 -0.3814,-1.9933 -0.535,-3.2951l1.8376 -0.2864c-0.0937,-0.7731 -0.2924,-1.0279 -0.6846,-1.4901 -1.5215,-1.7926 -3.1141,-3.5234 -4.9082,-5.0867 -1.4728,-1.2833 -0.858,-1.1181 -1.843,-1.972 -2.5464,-2.2073 -2.5056,-2.5739 -3.999,-4.0856zm14.534 -3.5583c0.6847,-0.3958 5.5269,-0.5089 6.7211,-0.6893 2.7556,-0.4165 5.21,-1.7058 5.9985,-1.2086 -0.2701,0.6501 -0.3034,0.4882 -0.7576,1.0733l-0.367 0.4699c-1.0229,1.0008 -3.6647,1.906 -5.0588,2.1878 -2.0049,0.4052 -5.6805,0.0747 -6.4543,-1.2114 -0.2885,-0.4794 -0.2,-0.1033 -0.082,-0.6217zm6.9757 -24.7367c3.6136,-0.5364 6.0293,3.7066 6.1764,7.3344 0.2259,5.5753 -3.3954,5.0781 -7.8986,6.0588 -2.5053,0.5456 -3.981,0.7905 -5.5208,-0.8554 -2.5954,-2.7746 0.9132,-7.3274 2.833,-9.7362 0.6719,-0.843 2.6513,-2.5405 4.41,-2.8016zm-29.3914 -2.1353c8.9748,-1.5043 11.802,14.4888 2.8217,15.9431 -10.0122,1.6214 -11.5426,-14.4813 -2.8217,-15.9431zm28.1859 -5.0001c1.0751,-1.8955 4.4566,-1.0634 4.0363,0.3418 -0.3598,1.203 -3.5194,1.7038 -4.0363,-0.3418zm-18.48 -8.6421c3.366,-0.497 5.9587,2.3202 6.1537,5.4693 0.2271,3.6664 -1.7492,6.2005 -4.8898,6.7904 -8.4839,1.5934 -8.1235,-11.2471 -1.2639,-12.2597zm31.2164 -2.3589c6.0031,-1.3487 8.444,10.0917 3.1328,11.5569 -6.1775,1.7041 -8.3532,-10.3842 -3.1328,-11.5569zm-57.2051 89.3153c0.1073,-0.979 -0.0025,-0.2807 0.2993,-0.5575 0.2606,0.2967 0.2688,0.2426 0.5497,0.5297 0.0301,0.0306 0.0729,0.0767 0.103,0.108l1.2481 1.1025c1.3525,0.8267 2.7859,1.3433 4.3935,1.7143 5.4742,1.2629 12.4109,1.1125 17.7824,-0.6086l7.8466 -2.0938c4.5779,-0.9979 7.669,-2.142 12.9688,-1.2377 5.1391,0.8769 10.4554,2.5036 15.3829,1.0614 1.0238,-0.2998 3.4545,-1.4218 4.0693,-2.286 0.2454,-0.3453 0.3071,-0.482 0.4788,-0.786 0.6776,0.5033 0.3579,0.1128 0.5616,0.4199 1.5694,-1.8216 1.7673,-6.9733 1.6455,-9.4993 -0.1516,-3.1444 -1.0147,-6.4267 -1.9815,-9.454 -0.9661,-3.0252 -1.7995,-5.7233 -2.6103,-8.8834 -0.4719,-1.8392 -0.9931,-5.6611 -1.0189,-7.6717 -0.0163,-1.2772 -0.2199,-1.9285 0.9535,-2.1919l1.5693 8.2287c4.541,-0.6467 9.4198,-1.8499 12.8702,-5.1016 1.6535,-1.5582 2.699,-2.192 4.1892,-4.0961l1.1882 -1.3533c0.6455,-0.8629 3.3784,-4.5673 3.5259,-5.7403 -0.9804,-0.5538 -2.0936,0.3498 -1.9241,-1.1177 0.1184,-1.0267 0.5914,-1.2425 0.5728,-2.6597 -1.7572,-0.1675 -3.6681,2.1998 -3.2718,-0.0753 0.1102,-0.6326 0.3046,-0.2616 0.1708,-0.9962l-4.494 1.7795c-1.4399,0.6627 -3.3054,1.5473 -4.9155,1.8868 -4.4276,0.9338 -7.0857,-2.3765 -9.1581,-4.0241 -0.752,0.5664 -1.7065,0.9488 -2.7039,0.7084 0.0204,-1.0328 2.4819,-2.531 4.0252,-4.1156l3.8174 -4.3558c-0.4034,-0.8211 0.0434,-0.0277 -0.3193,-0.4704 -1.2592,-1.537 -4.0024,-2.8611 -3.0797,-8.5708 0.8675,-5.3677 2.4778,-5.9069 4.6455,-7.6943 -2.2789,-4.1587 -3.492,-14.3798 -8.3048,-19.1405 -2.7976,-2.7672 -4.782,-4.4437 -8.532,-6.0968 -5.259,-2.3182 -12.6788,-2.6994 -18.4861,-2.2099 -5.2106,0.4393 -12.0185,2.9591 -15.8995,5.3387 0.108,0.9545 0.518,1.3783 -0.0177,2.1199 -0.8179,-0.0638 -0.5613,0.0867 -1.4344,-1.542 -0.35,-0.6527 -0.7486,-1.2524 -1.1444,-1.8332l-6.2168 -8.6573 -4.2399 -4.6849 -10.1361 -7.9348c-1.8024,3.3137 -1.9963,12.2365 -1.0854,16.835 0.2834,1.4311 2.0632,2.7052 2.9262,3.4378l2.3946 2.2635c0.3655,0.3218 0.6375,0.4526 0.9812,0.7314l6.3818 4.6628c0.3568,0.2317 0.5679,0.2853 1.0801,0.6372 1.7214,1.183 3.354,1.8684 3.5559,3.1819 -0.9574,0.2425 -1.9142,-0.0367 -2.8418,-0.2606 -2.3421,3.4599 -3.6078,13.5831 -3.4706,18.3607 0.1227,4.2751 1.4636,9.5519 2.9482,13.6116 0.3952,1.0805 1.2919,3.1517 1.3943,4.1385l-1.1457 0.3755c-0.4087,0.2484 -1.5555,2.8969 -1.74,3.3464 -2.4314,5.9271 -3.5089,7.3871 -5.6588,14.7312l-1.9646 8.0313c-0.6809,3.3681 -0.061,1.6473 1.9255,4.1958 3.9467,5.0629 -3.1294,4.2996 -3.1818,4.3085 -1.107,7.959 -1.0853,13.4976 2.5318,20.1542z"/>
  <path fill="#FECB42" d="M45.7515 156.3419c-0.4171,-0.5829 0.1763,-0.0779 -0.5397,-0.3402 -1.4085,-0.5156 -2.942,-0.3189 -4.2942,-2.1404l-0.1961 -0.3149c-0.7702,0.5592 0.1898,0.5485 -0.8401,0.3408 -0.7924,-2.2928 -0.3879,-1.0378 -1.1683,-2.6593 0.9904,0.0519 0.1931,0.0029 1.059,0.2053 0.7783,0.1821 0.2397,0.3128 0.7267,0.0494 -1.7184,-0.6564 -1.3558,-0.7306 -2.8845,-0.072 -1.9264,0.8301 -2.5865,1.6469 -3.5492,2.6161 -0.8072,0.8128 -2.5674,2.2544 -1.5355,3.7131 0.7276,-0.7108 0.5537,-0.9654 1.2018,-1.7004 1.5089,-1.7115 0.745,-1.2662 1.7999,-1.2283 0.0706,1.4796 -1.9873,2.4192 -1.9449,3.6341 2.158,2.0152 3.1352,-2.587 4.694,-2.2185 0.1693,0.301 0.2689,-0.2244 0.1037,0.628 -0.0957,0.4934 -0.2798,0.3968 -0.7969,1.1135 -0.4128,0.5721 -0.5269,0.957 -1.0983,1.2465 1.4581,0.1288 3.6487,-0.4697 4.9883,-0.9794l4.2744 -1.8936z"/>
  <path fill="#E5A92C" d="M33.3029 143.6431c0.5662,1.1946 1.0721,1.4284 1.6274,2.1853 0.6708,0.9143 1.5892,1.6306 2.5396,2.3427 0.4373,0.3276 0.1819,0.1373 0.646,0.4168 0.9568,0.5761 2.0584,1.1383 3.2285,1.6536 3.0186,1.3295 3.0444,0.1818 3.1425,1.75 -1.1677,0.2135 -2.7572,-0.1743 -3.9881,-0.5087 -0.487,0.2634 0.0516,0.1326 -0.7267,-0.0494 -0.8659,-0.2024 -0.0685,-0.1534 -1.059,-0.2053 0.7804,1.6215 0.3759,0.3665 1.1683,2.6593 1.0299,0.2077 0.07,0.2184 0.8401,-0.3408l0.1961 0.3149c1.3522,1.8216 2.8857,1.6248 4.2942,2.1404 0.716,0.2622 0.1226,-0.2427 0.5397,0.3402 1.3601,-1.0221 2.9919,-1.4717 4.9046,-3.4884 0.0364,-0.0383 0.1063,-0.0616 0.1327,-0.1598 0.0272,-0.101 0.0945,-0.1072 0.1332,-0.1671 -0.3736,0.0349 -1.3637,0.0977 -1.6566,0.0263 -0.9026,-0.2201 -0.6419,-0.2469 -0.8327,-0.8694 2.8297,-0.5798 5.859,-1.0417 8.7165,-1.7899 6.8022,-1.7809 11.4831,-2.4979 18.5313,-1.66 2.3806,0.283 4.952,0.2043 7.4376,0.4421 0.2499,0.0239 0.8707,0.0996 1.0942,0.1735 0.8345,0.2756 0.4017,-0.094 0.6939,0.516 -0.4616,0.8614 -4.5232,0.8887 -5.6434,0.8166 0.6224,0.6681 1.5777,0.9931 2.5786,1.3639 0.1355,-0.0528 2.7387,0.8736 3.5416,1.0304 1.1699,0.2284 2.6611,-0.3732 3.8768,-0.7146 1.8231,-0.5121 5.4385,-1.3281 6.8905,-3.013 -2.5868,-1.6289 -2.7213,0.1744 -5.6288,-0.2961 0.1152,-1.0003 -0.1544,-0.6444 1.1577,-1.1213 0.4805,-0.1747 0.9362,-0.3198 1.4019,-0.5129 0.9361,-0.388 1.6191,-0.9635 2.3211,-1.4845 1.1606,-0.8615 1.88,-1.5984 2.7257,-2.8044 0.8176,-1.1659 0.609,-0.4547 0.8587,-1.6201 -0.2037,-0.3071 0.116,0.0834 -0.5616,-0.4199 -0.1716,0.304 -0.2333,0.4408 -0.4788,0.786 -0.6148,0.8642 -3.0455,1.9863 -4.0693,2.286 -4.9275,1.4422 -10.2438,-0.1845 -15.3829,-1.0614 -5.2998,-0.9043 -8.3909,0.2398 -12.9688,1.2377l-7.8466 2.0938c-5.3715,1.7212 -12.3082,1.8716 -17.7824,0.6086 -1.6076,-0.371 -3.041,-0.8876 -4.3935,-1.7143l-1.2481 -1.1025c-0.03,-0.0313 -0.0729,-0.0774 -0.103,-0.108 -0.2808,-0.2871 -0.2891,-0.233 -0.5497,-0.5297 -0.3018,0.2768 -0.192,-0.4216 -0.2993,0.5575z"/>
  <path fill="#DAC39C" d="M193.6357 133.2172l-1.0376 0.113 -4.6284 6.8748c-0.4457,0.4989 -0.194,0.2409 -0.522,0.7689 -0.3618,0.5825 -0.2039,0.3338 -0.6003,0.6615 -0.2846,0.2353 -0.0705,0.0084 -0.3445,0.2801 -0.8381,0.8308 -1.2161,1.6984 -2.8039,2.946 -0.2334,0.1834 -0.5371,0.3842 -0.731,0.5573l-3.0958 2.6324c-1.241,1.0489 -3.6898,2.3652 -5.1888,3.092 -7.4313,3.6027 -12.8096,4.2428 -21.227,3.7101 -4.0552,-0.2567 -8.2397,-1.8564 -11.8987,-3.4356 -1.3527,-0.5839 -2.2126,-1.4868 -2.9961,-1.4478 0.2341,0.7128 2.4957,2.2659 3.2715,2.6881 0.6538,0.356 1.1449,0.7767 1.828,1.1491 2.7239,1.4849 7.2293,3.4082 10.2217,4.0176 7.5492,1.5373 13.0614,1.2014 20.2765,-1.2405 1.5984,-0.541 2.6694,-1.0894 4.0952,-1.8482l5.8269 -3.7483c0.1871,-0.1426 0.1709,-0.1404 0.3506,-0.2805 0.2198,-0.1714 0.4486,-0.3129 0.7209,-0.5657l1.5896 -1.3854c1.2165,-1.004 2.4764,-2.6167 3.4015,-3.835 3.1019,-4.0844 4.744,-6.7387 6.2987,-12.2968l-2.807 0.593z"/>
  <path fill="#C76444" d="M82.686 82.8833c-0.0008,-0.7909 -0.082,-1.3886 -0.3844,-2.0728 -0.4939,-1.1173 -1.1719,-1.9055 -2.1793,-2.5005 -0.7205,-0.4258 -2.2378,-2.0048 -4.9686,-0.7409 -1.2069,0.5586 -0.3808,0.3354 -1.1889,1.1444 -0.4454,0.4458 -0.5446,0.228 -1.009,1.0993 -0.5806,1.0893 -0.8604,2.6243 -0.4088,3.746 1.1051,2.7455 8.5978,0.1455 10.139,-0.6755z"/>
  <path fill="#3A2519" d="M45.2123 79.1466c-1.0175,-9.4056 10.4381,-10.0283 11.2472,-1.6589 0.3451,3.5693 -1.0943,7.2075 -4.8027,7.6796 -3.519,0.448 -6.1088,-2.9178 -6.4445,-6.0207zm4.3735 -8.8178c-8.7209,1.4618 -7.1905,17.5646 2.8217,15.9431 8.9803,-1.4543 6.1531,-17.4475 -2.8217,-15.9431z"/>
  <path fill="#DC5C35" d="M102.135 80.7708c1.0882,-2.6175 1.8084,-3.0923 2.3026,-6.4839 0.5932,-4.0717 -0.8698,-6.0785 -1.0452,-7.5282 -1.7964,0.9048 -3.577,4.1272 -3.931,6.4375 -0.2345,1.5302 -0.0979,3.3971 0.3763,4.7594 0.3571,1.0255 1.3932,2.2156 2.2972,2.8153z"/>
  <path fill="#FECD46" d="M81.8415 151.5458c1.9907,1.587 14.3708,3.4725 17.3707,3.1985 -0.6969,-0.9396 -2.9161,-1.5709 -3.0188,-2.5745 0.7193,-0.6253 1.7018,0.1536 2.5048,0.6769 0.7891,0.5142 1.4232,1.0238 1.7683,1.8591l1.252 -0.5175c-0.3583,-0.5553 -0.3235,-0.3262 -0.6694,-0.7003 -1.9078,-2.0629 -2.0912,-0.7735 -2.1728,-2.199 0.4681,-0.1844 0.9169,-0.0295 1.3529,0.2096 1.429,0.784 1.9296,1.885 2.3401,2.2209 0.3472,-0.3416 0.6056,-0.0401 0.0046,-0.8752 -0.8891,-1.2353 -4.7602,-3.5304 -6.4235,-3.9958 -1.452,1.6849 -5.0674,2.5009 -6.8905,3.013 -1.2157,0.3414 -2.7069,0.943 -3.8768,0.7146 -0.8029,-0.1567 -3.406,-1.0832 -3.5416,-1.0304z"/>
  <path fill="#B36C2C" d="M26.5652 121.5889c-0.0363,0.0429 -0.0913,0.0525 -0.1077,0.1297l-4.2425 6.5405c0.4721,0.4524 5.2611,2.5042 5.9871,2.5772 -0.2921,-2.7309 0.9154,-8.5284 0.8498,-9.5523 -0.8727,-0.131 -0.0134,0.0249 -0.7653,-0.2612 -0.2991,-0.1137 -0.2083,-0.1153 -0.6526,-0.2465 -0.6201,0.3403 -0.7199,0.5381 -1.0689,0.8126z"/>
  <path fill="#3D2214" d="M154.6115 126.1275c-0.0886,-6.1456 8.5769,-6.5296 8.7481,-0.6097 0.0722,2.4981 -1.6814,4.6319 -3.9377,4.8509 -2.5268,0.2453 -4.7764,-1.8827 -4.8104,-4.2412zm-1.1093 1.0629c0.5305,2.6859 3.3053,5.0858 6.6974,4.1799 2.6267,-0.7014 4.9106,-3.454 4.1416,-6.9236 -1.6112,-7.2698 -12.302,-4.6633 -10.839,2.7438z"/>
  <path fill="#E3A42B" d="M72.0014 97.2009c-0.1181,0.5184 -0.2066,0.1422 0.082,0.6217 0.7738,1.2861 4.4494,1.6166 6.4543,1.2114 1.3941,-0.2818 4.0359,-1.187 5.0588,-2.1878l0.367 -0.4699c0.4542,-0.5851 0.4875,-0.4232 0.7576,-1.0733 -0.7885,-0.4972 -3.243,0.7921 -5.9985,1.2086 -1.1942,0.1804 -6.0364,0.2935 -6.7211,0.6893z"/>
  <path fill="#FEF4D2" d="M60.8723 58.7152c-2.4885,0.9187 -1.2909,4.9834 0.8584,4.3672 2.0549,-0.589 1.3128,-5.1688 -0.8584,-4.3672z"/>
  <path fill="#FEF1D2" d="M91.2806 60.1935c0.6194,-0.7239 1.1372,-1.1426 0.9683,-2.4969 -0.1217,-0.9766 -0.8191,-1.9181 -1.9686,-1.5706 -1.4539,0.4396 -2.0022,4.1356 1.0003,4.0675z"/>
  <path fill="#B35430" d="M30.9287 122.4152c1.2342,0.3306 3.4218,0.3454 3.085,-1.2058 -0.1215,-0.5597 -1.1246,-1.8817 -1.5764,-2.4444 -0.2227,-0.2774 -0.4178,-0.4307 -0.6663,-0.7562 -0.2975,0.3198 -0.1063,0.0011 -0.2885,0.4681 -0.0698,0.1784 -0.1014,0.3338 -0.1364,0.5108 -0.0487,0.2461 -0.1192,0.854 -0.1638,1.1537 -0.1154,0.7758 -0.1631,1.6323 -0.2535,2.2737z"/>
 </g>
</svg>
