<?xml version="1.0" encoding="UTF-8"?>
<!DOCTYPE svg PUBLIC "-//W3C//DTD SVG 1.1//EN" "http://www.w3.org/Graphics/SVG/1.1/DTD/svg11.dtd">
<!-- Creator: CorelDRAW 2018 (64 Bit) -->
<svg xmlns="http://www.w3.org/2000/svg" xml:space="preserve" width="118.846mm" height="126.824mm" version="1.1" shape-rendering="geometricPrecision" text-rendering="geometricPrecision" image-rendering="optimizeQuality" fill-rule="evenodd" clip-rule="evenodd"
viewBox="0 0 106.2717 113.4053"
 xmlns:xlink="http://www.w3.org/1999/xlink">
 <defs>
    <linearGradient id="id0" gradientUnits="userSpaceOnUse" x1="59.987" y1="35.3877" x2="62.679" y2="46.131">
     <stop offset="0" stop-opacity="1" stop-color="#322A26"/>
     <stop offset="1" stop-opacity="1" stop-color="#76675F"/>
    </linearGradient>
    <linearGradient id="id1" gradientUnits="userSpaceOnUse" x1="35.057" y1="39.9846" x2="33.2619" y2="45.9234">
     <stop offset="0" stop-opacity="1" stop-color="#3E3631"/>
     <stop offset="1" stop-opacity="1" stop-color="#796B65"/>
    </linearGradient>
 </defs>
 <g id="Camada_x0020_1">
  <metadata id="CorelCorpID_0Corel-Layer"/>
  <g id="_2408503299920">
   <path fill="#252422" fill-rule="nonzero" d="M1.1015 0c0.7564,0.005 1.5093,0.0283 2.2613,0.1177 2.5957,0.3097 5.2115,1.0535 7.6662,1.9359 8.5177,3.0622 15.9225,8.6748 21.7827,15.5195 0.7397,0.8641 1.4275,1.7807 2.1297,2.6756 1.0606,-0.374 2.1224,-0.763 3.2097,-1.0535 6.5663,-1.7548 14.24,-1.8491 20.7392,0.2705 0.6256,0.2045 1.234,0.4775 1.8439,0.7247 2.3313,-4.529 6.9465,-8.7908 11.0446,-11.7419 1.7199,-1.238 3.5028,-2.4218 5.3564,-3.452 4.6817,-2.6013 12.3313,-5.6618 17.7452,-4.7794 -0.1945,1.0402 -0.4525,2.037 -0.829,3.0262 -0.6011,1.5754 -1.334,3.1449 -2.1856,4.6008 -3.2207,5.5073 -9.067,11.9447 -14.3541,15.5011 -2.378,1.6003 -5.0412,2.8384 -7.6499,4.008 2.692,3.7283 4.1662,7.924 3.5035,12.5649 0.2141,0.3071 0.4298,0.6148 0.6309,0.9305 2.4069,3.7774 2.8936,8.1731 1.9502,12.4909 0.5218,-0.7936 1.0719,-1.5676 1.6496,-2.322 4.5699,-6.0056 11.6584,-11.3032 18.8213,-13.7249 1.0135,-0.3429 2.1179,-0.8005 3.1765,-0.9444 1.0878,1.366 2.0845,2.7703 2.9127,4.3108 2.9537,5.4896 4.1341,12.4667 3.6657,18.6475 -5.9732,0.9825 -12.2478,3.0868 -17.7084,5.6719 1.5661,2.8789 2.7983,5.9358 3.4962,9.1388 -3.2258,0.8402 -6.5568,1.5101 -9.8693,1.8908 1.6872,2.7834 3.2224,5.4739 4.4654,8.4903 -0.8523,0.8998 -1.5936,1.9267 -2.4327,2.8472 -2.0537,2.2549 -4.1933,4.4407 -6.2905,6.6567 -0.1085,0.948 -0.2253,1.9027 -0.4458,2.832 -0.8849,3.7258 -3.1459,7.0905 -6.4161,9.1147 1.3452,1.1387 2.8479,2.4856 3.0793,4.3506 0.0715,0.5761 -0.07,1.1039 -0.4397,1.5546 -0.808,0.9849 -2.2412,1.3467 -3.451,1.473 -3.2185,0.3363 -6.5942,-1.0126 -9.1288,-2.9263 -0.8505,-0.6423 -1.589,-1.3937 -2.4129,-2.0622 -1.4157,-0.204 -2.8773,-0.252 -4.3063,-0.3307 -2.0047,-0.1107 -4.0269,-0.2373 -6.0346,-0.217 -2.1193,0.0211 -4.2624,0.1884 -6.3774,0.327 -1.3932,0.0914 -2.9187,0.0949 -4.2833,0.3598 -0.4091,0.3723 -0.8311,0.7295 -1.2661,1.0712 -0.4349,0.3417 -0.882,0.6672 -1.3406,0.9765 -0.4587,0.3094 -0.928,0.6016 -1.4079,0.8767 -0.4798,0.2751 -0.9692,0.5325 -1.4679,0.772 -2.2877,1.0802 -5.2562,1.6965 -7.7068,0.8002 -0.8575,-0.3138 -1.9408,-0.9023 -2.3186,-1.778 -0.218,-0.5051 -0.1272,-1.0383 0.0769,-1.5322 0.6689,-1.6192 2.1087,-2.5005 3.6491,-3.1511 -2.6557,-1.7607 -4.491,-3.8002 -5.7429,-6.7483 -1.0214,-2.4046 -1.5774,-5.2877 -1.6501,-7.9 -0.0904,-3.2322 0.5001,-6.72 1.0574,-9.9036 1.0391,-5.9346 2.2882,-11.8241 4.3217,-17.5082 0.3762,-1.0513 0.8244,-2.0822 1.2436,-3.1173 -2.5536,-2.2233 -4.3538,-4.4767 -5.2723,-7.8138 -0.944,-3.4304 -0.6836,-7.3048 0.984,-10.4809 0.6062,-1.1546 1.4448,-2.3448 1.7523,-3.6231 0.2501,-1.0393 0.0622,-2.1749 0.1027,-3.2359 0.1134,-2.9856 1.1801,-5.7222 2.6486,-8.281 -1.0075,-0.4049 -1.9665,-1.0043 -2.9132,-1.5352 -1.422,-0.7973 -2.7867,-1.6563 -4.1607,-2.5312 -2.6886,-1.7123 -5.0312,-3.3352 -7.352,-5.5325 -1.7531,-1.6604 -3.4386,-3.5263 -4.9024,-5.4456 -2.3775,-3.1173 -5.8382,-8.7932 -5.9513,-12.7695 0.3604,-0.0602 0.7365,-0.0652 1.1015,-0.0868z"/>
   <path fill="#FDCA3A" fill-rule="nonzero" d="M12.1052 3.2166c1.4882,0.5685 2.9681,1.3332 4.367,2.0963 0.4322,0.2379 0.8608,0.4817 1.2865,0.7305 0.4257,0.2488 0.848,0.5034 1.2672,0.763 0.419,0.2605 0.8346,0.526 1.2469,0.7965 0.412,0.2705 0.8206,0.5468 1.2258,0.8281 0.4051,0.2813 0.8063,0.5677 1.2039,0.8591 0.3976,0.2922 0.7915,0.5894 1.1811,0.8908 0.3899,0.3021 0.776,0.6094 1.1577,0.9208 0.3819,0.3123 0.7599,0.6295 1.1334,0.9509 0.3739,0.3215 0.7434,0.6486 1.1086,0.9792 0.3652,0.3315 0.726,0.6679 1.0826,1.0086 0.3564,0.3406 0.7084,0.6862 1.056,1.036 0.3476,0.3497 0.6905,0.7037 1.0289,1.0627 0.3383,0.359 0.6719,0.7222 1.0009,1.0895 0.329,0.3673 0.6529,0.7389 0.9723,1.1145 0.3194,0.3757 0.6337,0.7555 0.9433,1.1396 0.3094,0.384 0.6139,0.7722 0.9132,1.1637 -1.1623,0.6796 -2.2483,1.3366 -3.2204,2.2849 1.8927,-1.0602 3.8167,-1.82 5.8621,-2.5262 1.6514,-0.5702 3.3226,-0.9058 5.0441,-1.1863 0.2384,-0.0392 0.477,-0.0759 0.7157,-0.111 0.2391,-0.0351 0.4784,-0.0668 0.7179,-0.0968 0.2396,-0.03 0.4794,-0.0585 0.7194,-0.0835 0.24,-0.0258 0.4803,-0.0493 0.7209,-0.0701 0.2404,-0.0208 0.4813,-0.0393 0.7222,-0.0551 0.2408,-0.0167 0.4818,-0.03 0.7228,-0.0418 0.2413,-0.0117 0.4826,-0.0209 0.7239,-0.0275 0.2415,-0.0075 0.4828,-0.0117 0.7243,-0.0142 0.2413,-0.0017 0.4828,-0.0017 0.724,0 0.2415,0.0025 0.483,0.0075 0.7243,0.0142 0.2413,0.0075 0.4825,0.0167 0.7239,0.0283 0.241,0.0117 0.482,0.0259 0.723,0.0426 0.2407,0.0159 0.4815,0.0351 0.7221,0.056 0.2405,0.0208 0.4808,0.0443 0.7208,0.0701 0.2401,0.025 0.4799,0.0535 0.7195,0.0835 0.2395,0.03 0.4788,0.0626 0.7176,0.0976 0.2388,0.0351 0.4774,0.0718 0.7157,0.1119 0.2381,0.0393 0.476,0.081 0.7133,0.1253 0.2373,0.0434 0.4742,0.0901 0.7109,0.1385 0.2363,0.0485 0.4724,0.0993 0.7078,0.1528 0.2355,0.0534 0.4705,0.1085 0.7049,0.1661 0.2345,0.0584 0.4683,0.1177 0.7018,0.1803 0.2332,0.0618 0.4659,0.1269 0.6978,0.1937 0.232,0.066 0.4635,0.1353 0.6941,0.2062 0.2308,0.0718 0.4609,0.1444 0.69,0.2204 0.2293,0.076 0.4577,0.1536 0.6856,0.2337 0.2278,0.0801 0.455,0.1619 0.6809,0.2463 0.2263,0.0843 0.4517,0.1711 0.6763,0.2597 0.2246,0.0893 0.4483,0.1795 0.6708,0.273 0.2229,0.0926 0.445,0.1878 0.6655,0.2855 0.2212,0.0968 0.4411,0.197 0.6601,0.298 0.219,0.1018 0.437,0.2053 0.654,0.3114 -0.9271,-0.8523 -2.0712,-1.4426 -3.1671,-2.0462 0.5472,-1.1362 1.4155,-2.1972 2.2028,-3.1798 3.0779,-3.8411 6.7938,-6.9299 10.8608,-9.6715 2.5005,-1.6856 5.056,-3.1991 7.8893,-4.2493 -0.2905,2.3067 -0.5501,4.6191 -1.0218,6.8983 -0.2997,1.4434 -0.7087,2.8676 -1.1329,4.2776 -0.5718,1.9026 -2.613,7.5168 -4.0398,8.6989 -0.5701,0.4734 -1.3146,0.8065 -1.9647,1.1571 -1.5872,0.8557 -3.2102,1.6388 -4.7964,2.4928 -0.6912,-0.7397 -1.5061,-1.6814 -2.3858,-2.1881 0.5526,0.6261 1.1062,1.2514 1.621,1.9084 0.6774,0.8649 1.2131,1.7824 1.7367,2.7441 1.8613,3.4161 2.6857,6.8155 2.2059,10.7147 0.9271,1.2365 1.6149,2.5234 2.1826,3.9587 0.5288,1.4966 0.8422,2.9911 0.8498,4.5811 -1.6448,-0.8832 -3.0625,-1.3881 -4.9566,-1.1481 -2.1802,0.2763 -4.092,1.4018 -5.4316,3.1377 -1.1767,1.525 -1.82,3.5136 -1.5595,5.4388 0.3819,2.8241 2.2422,4.6189 4.3982,6.2589 -0.7974,0.5984 -1.7786,1.0847 -2.6743,1.5208 -3.7422,1.8226 -7.6471,2.8551 -11.7632,3.4029 -7.4822,0.996 -15.7799,-0.0524 -22.6321,-3.2721 -1.2019,-0.5649 -2.4935,-1.1523 -3.5521,-1.9608 0.7331,-0.3573 1.3795,-0.7284 1.9828,-1.284 1.4924,-1.3741 2.5206,-3.359 2.5853,-5.4028 0.0656,-2.0644 -0.8492,-4.1993 -2.2512,-5.6953 -1.3188,-1.4069 -3.1063,-2.3456 -5.0555,-2.3943 -1.8004,-0.0451 -3.2928,0.6681 -4.5752,1.898 -0.0115,-2.253 0.761,-4.5436 1.8175,-6.5014 0.4627,-0.8575 1.0229,-1.7136 1.309,-2.6506 0.4027,-1.3188 0.1663,-2.6727 0.2631,-4.0224 0.301,-4.19 2.0141,-7.3899 4.5176,-10.6432 -0.8754,0.6119 -1.6423,1.3248 -2.3634,2.1088 -0.7238,-0.6053 -1.6403,-1.0268 -2.4625,-1.4835 -1.2255,-0.6746 -2.4342,-1.3775 -3.6256,-2.1097 -0.6844,-0.4182 -1.4126,-0.8364 -2.0374,-1.3407 -0.6146,-0.4967 -0.9036,-1.5169 -1.2076,-2.2366 -2.1834,-5.1751 -3.6305,-11.4405 -4.1985,-17.0146z"/>
   <path fill="#252422" fill-rule="nonzero" d="M54.3128 38.2936c1.3039,-0.3875 2.563,-1.2115 3.7512,-1.8613 2.9888,-1.6347 6.0486,-3.3798 9.3996,-4.1236 -1.0981,0.5301 -2.128,1.1454 -3.1692,1.7782l0.3935 0.3556c1.538,1.5029 2.5148,3.384 2.5452,5.5706 0.0012,0.1161 -0.0005,0.232 -0.0052,0.348 -0.0045,0.1159 -0.0121,0.2317 -0.0221,0.3473 -0.0102,0.1156 -0.0232,0.231 -0.0391,0.3461 -0.0157,0.1148 -0.0346,0.2295 -0.0559,0.3434 -0.0216,0.1141 -0.0459,0.2276 -0.0731,0.3404 -0.0269,0.1129 -0.0568,0.2252 -0.0892,0.3366 -0.0328,0.1115 -0.068,0.2219 -0.1061,0.3317 -0.0379,0.1096 -0.0786,0.2182 -0.122,0.3259 -0.043,0.1078 -0.0892,0.2143 -0.1376,0.3197 -0.0486,0.1055 -0.0997,0.2096 -0.1534,0.3125 -0.0537,0.1029 -0.1097,0.2045 -0.1685,0.3047 -0.0586,0.1002 -0.1198,0.199 -0.1833,0.296 -0.0634,0.0972 -0.1293,0.1928 -0.1974,0.2868 -0.0682,0.0941 -0.1386,0.1862 -0.2113,0.2766 -0.0728,0.0906 -0.1475,0.1792 -0.2246,0.2659 -0.0769,0.087 -0.1563,0.1718 -0.2373,0.2548 -0.1093,0.1116 -0.22,0.2083 -0.345,0.3021 -0.0386,0.0501 -0.0837,0.0907 -0.1305,0.1331 -1.0349,0.9418 -2.5503,1.4593 -3.9421,1.3893 -1.4903,-0.0752 -2.8357,-0.774 -3.827,-1.8782 -1.6521,-1.8403 -1.7601,-3.6947 -1.6241,-6.0184 -0.2895,0.1138 -0.615,0.2674 -0.9293,0.2772 -0.207,0.0063 -0.3887,-0.0807 -0.5359,-0.2224 -0.7562,-0.7292 -0.9275,-2.6 -0.9402,-3.5846 0.3402,1.0526 0.6898,1.968 1.3795,2.8459z"/>
   <path fill="url(#id0)" d="M61.2479 36.1112c0.4401,-0.3118 0.9079,-0.5871 1.3518,-0.8946 0.434,-0.301 0.8725,-0.6848 1.3496,-0.9102 0.2173,0.0192 0.3765,0.2004 0.5508,0.3215 1.5376,1.6053 2.3815,3.6674 2.3225,5.8929 -0.0477,1.8066 -0.8849,3.3995 -2.1568,4.6413 -1.0724,0.7948 -2.0591,1.3543 -3.4197,1.4031 -1.3761,0.0492 -2.6264,-0.4642 -3.6241,-1.4065 -1.1493,-1.0854 -1.951,-2.844 -1.9865,-4.4275 -0.03,-0.6834 -0.0239,-1.3619 0.2424,-2.0034l0.098 -0.0786c0.2131,0.1952 0.2327,0.6118 0.2473,0.8918 0.025,0.4832 0.0309,0.9284 0.1326,1.4042 0.2858,0.8632 0.8597,1.7349 1.6551,2.2005 0.8777,0.5139 1.9952,0.5969 2.965,0.3248 1.0172,-0.2853 1.7922,-0.9454 2.2946,-1.8686 0.496,-0.9112 0.6064,-1.8691 0.3096,-2.866 -0.3787,-1.2715 -1.1941,-2.0122 -2.3322,-2.6248z"/>
   <path fill="#3A312C" fill-rule="nonzero" d="M55.6356 40.7313c-0.03,-0.6834 -0.0239,-1.3619 0.2424,-2.0034l0.098 -0.0786c0.2131,0.1952 0.2327,0.6118 0.2473,0.8918 0.025,0.4832 0.0309,0.9284 0.1326,1.4042 -0.1822,-0.2567 -0.2345,-0.4931 -0.2415,-0.8044 -0.0042,-0.1851 0.0183,-0.3993 -0.1025,-0.5479l-0.2938 0.1518c0.0009,0.3343 0.0156,0.6628 -0.0825,0.9864z"/>
   <path fill="#FEFEFE" fill-rule="nonzero" d="M59.9002 36.8033c0.5039,0.1125 0.9764,0.3381 1.3444,0.7054 0.4407,0.44 0.6834,1.0196 0.6622,1.6435 -0.0014,0.0401 -0.0039,0.0797 -0.0074,0.1191 -0.0034,0.0397 -0.0078,0.0791 -0.013,0.1186 -0.0054,0.0394 -0.0117,0.0786 -0.019,0.1179 -0.0073,0.0389 -0.0157,0.0779 -0.0248,0.1165 -0.0093,0.0387 -0.0196,0.0769 -0.0306,0.1152 -0.0114,0.0382 -0.0233,0.0762 -0.0363,0.1137 -0.013,0.0377 -0.0269,0.0749 -0.0417,0.1117 -0.0148,0.0369 -0.0308,0.0735 -0.0475,0.1094 -0.0166,0.0363 -0.0341,0.0718 -0.0527,0.107 -0.0183,0.0353 -0.0376,0.0701 -0.0578,0.1041 -0.02,0.0343 -0.0412,0.0681 -0.063,0.1015 -0.0218,0.033 -0.0446,0.0658 -0.0681,0.0979 -0.0232,0.0321 -0.0475,0.0637 -0.0725,0.0946 -0.0249,0.0308 -0.0509,0.0612 -0.0773,0.0906 -0.0265,0.0296 -0.0537,0.0588 -0.0818,0.0869 -0.0277,0.0283 -0.0563,0.0559 -0.0858,0.0829 -0.5472,0.4977 -1.1801,0.6437 -1.8983,0.6216 -0.1188,-0.0216 -0.2371,-0.0469 -0.3542,-0.0764 -0.6104,-0.159 -1.1615,-0.5746 -1.4723,-1.124 -0.4125,-0.7292 -0.3581,-1.3749 -0.1455,-2.146 0.8769,-0.4455 1.7676,-0.8622 2.6429,-1.3117z"/>
   <path fill="#252422" fill-rule="nonzero" d="M29.045 32.5625c0.7275,0.0476 1.5218,0.3757 2.2093,0.6169 1.9975,0.7029 4.0073,1.5894 5.8448,2.6457 1.5416,0.886 2.9795,1.8866 4.5954,2.6451 0.8496,-0.8105 1.1967,-1.9063 1.4056,-3.0296 0.0422,0.988 -0.0496,1.9973 -0.4043,2.9278 -0.1365,0.3586 -0.3351,0.7637 -0.7109,0.9198 -0.4222,0.1751 -1.2132,-0.2929 -1.6213,-0.4574 0.3821,1.7546 0.4458,2.7977 -0.3013,4.4788 -0.5208,1.0113 -1.2132,1.8691 -2.1709,2.4991 -0.0756,0.0497 -0.1524,0.0976 -0.2304,0.1432 -0.078,0.0459 -0.157,0.09 -0.2371,0.1318 -0.0803,0.0419 -0.1614,0.0818 -0.2437,0.1197 -0.0821,0.0377 -0.1652,0.0739 -0.2491,0.1077 -0.0841,0.0335 -0.1686,0.0651 -0.2543,0.0947 -0.0855,0.0297 -0.1716,0.0569 -0.2583,0.0821 -0.087,0.0252 -0.1745,0.0486 -0.2625,0.0693 -0.0881,0.0208 -0.1764,0.0397 -0.2656,0.0561 -0.089,0.0164 -0.1784,0.0307 -0.2679,0.0427 -0.0897,0.012 -0.1796,0.0218 -0.2698,0.0294 -0.0901,0.0076 -0.1804,0.013 -0.2709,0.0159 -0.0904,0.0031 -0.1808,0.0038 -0.2715,0.0025 -0.0903,-0.0015 -0.1807,-0.0052 -0.2711,-0.0111 -0.09,-0.0059 -0.1803,-0.0142 -0.2701,-0.0245 -0.09,-0.0106 -0.1795,-0.0232 -0.2686,-0.0382 -0.0892,-0.0149 -0.1782,-0.0318 -0.2666,-0.0512 -1.5647,-0.3338 -2.8472,-1.3413 -3.6998,-2.6769 -0.9352,-1.4645 -1.2274,-3.3788 -0.8389,-5.0652 0.4602,-1.9987 1.6222,-3.3086 3.3251,-4.364 -1.1718,-0.6094 -2.3022,-1.2998 -3.4752,-1.9101z"/>
   <path fill="url(#id1)" d="M34.5267 43.42c0.8176,0.2214 1.5938,0.3058 2.418,0.0551 0.0593,-0.0177 0.118,-0.0365 0.1764,-0.0571 0.0582,-0.0205 0.1161,-0.0426 0.1731,-0.0661 0.0574,-0.0235 0.1139,-0.0483 0.1697,-0.0748 0.0562,-0.0262 0.1112,-0.0539 0.1658,-0.0828 0.0547,-0.0292 0.1086,-0.0595 0.1615,-0.091 0.0532,-0.0318 0.1053,-0.0647 0.1568,-0.099 0.0514,-0.0345 0.1018,-0.0701 0.1517,-0.1069 0.0496,-0.0369 0.0984,-0.0749 0.1462,-0.1141 0.0477,-0.0392 0.0942,-0.0796 0.1401,-0.1213 0.0458,-0.0416 0.0903,-0.0845 0.134,-0.1281 0.0436,-0.0438 0.0862,-0.0889 0.1276,-0.1348 0.0411,-0.046 0.0813,-0.0927 0.1205,-0.1408 0.0389,-0.0479 0.0766,-0.0968 0.1134,-0.1466 0.0365,-0.0496 0.0718,-0.1004 0.1059,-0.1521 0.0342,-0.0517 0.0669,-0.1041 0.0985,-0.1573 0.0314,-0.0531 0.0615,-0.107 0.0901,-0.1618 0.5783,-1.1167 0.487,-2.2569 0.1169,-3.4194 0.1824,0.1196 0.3916,0.2394 0.5094,0.4282 0.5481,0.878 0.5339,2.2867 0.3451,3.2738 -0.1156,1.1537 -1.006,2.4046 -1.8424,3.157 -1.0395,0.9351 -2.3205,1.3694 -3.7133,1.285 -1.4471,-0.0882 -2.7581,-0.7204 -3.7145,-1.8121 -1.2984,-1.4821 -1.5438,-3.173 -1.4072,-5.0754 0.3018,0.2439 0.792,0.2704 1.1415,0.4587 0.5711,0.3079 1.0666,0.7927 1.6488,1.0569 0.2539,0.9202 0.8152,1.6749 1.6551,2.138 0.1968,0.1086 0.4064,0.1977 0.6115,0.2886z"/>
   <path fill="#3A312C" fill-rule="nonzero" d="M34.5267 43.42c0.8176,0.2214 1.5938,0.3058 2.418,0.0551 0.0593,-0.0177 0.118,-0.0365 0.1764,-0.0571 0.0582,-0.0205 0.1161,-0.0426 0.1731,-0.0661 0.0574,-0.0235 0.1139,-0.0483 0.1697,-0.0748 0.0562,-0.0262 0.1112,-0.0539 0.1658,-0.0828 0.0547,-0.0292 0.1086,-0.0595 0.1615,-0.091 0.0532,-0.0318 0.1053,-0.0647 0.1568,-0.099 0.0514,-0.0345 0.1018,-0.0701 0.1517,-0.1069 0.0496,-0.0369 0.0984,-0.0749 0.1462,-0.1141 0.0477,-0.0392 0.0942,-0.0796 0.1401,-0.1213 0.0458,-0.0416 0.0903,-0.0845 0.134,-0.1281 0.0436,-0.0438 0.0862,-0.0889 0.1276,-0.1348 0.0411,-0.046 0.0813,-0.0927 0.1205,-0.1408 0.0389,-0.0479 0.0766,-0.0968 0.1134,-0.1466 0.0365,-0.0496 0.0718,-0.1004 0.1059,-0.1521 0.0342,-0.0517 0.0669,-0.1041 0.0985,-0.1573 0.0314,-0.0531 0.0615,-0.107 0.0901,-0.1618 0.5783,-1.1167 0.487,-2.2569 0.1169,-3.4194 0.1824,0.1196 0.3916,0.2394 0.5094,0.4282 0.5481,0.878 0.5339,2.2867 0.3451,3.2738 -0.0661,-0.1817 -0.081,-0.182 -0.0129,-0.3601 -0.1855,-0.0394 -0.4779,0.1847 -0.6393,0.2886 -1.1557,0.7446 -2.215,2.4426 -3.7829,2.1108 -0.4134,-0.0874 -0.847,-0.2863 -1.1854,-0.5424z"/>
   <path fill="#FEFEFE" fill-rule="nonzero" d="M35.795 36.936c0.0351,-0.0079 0.0704,-0.0152 0.1056,-0.0214 0.0355,-0.0063 0.0711,-0.0117 0.1066,-0.0161 0.0357,-0.0046 0.0715,-0.0083 0.1072,-0.011 0.036,-0.003 0.0717,-0.0049 0.1078,-0.006 0.0359,-0.0009 0.072,-0.0012 0.108,-0.0004 0.0359,0.0007 0.0717,0.0022 0.1078,0.0046 0.0358,0.0025 0.0714,0.0059 0.1073,0.0101 0.0357,0.0041 0.0713,0.0093 0.1068,0.0151 0.0355,0.0059 0.0708,0.0128 0.1058,0.0204 0.0353,0.0076 0.0701,0.0162 0.1048,0.0255 0.0349,0.0092 0.0693,0.0196 0.1034,0.0306 0.0343,0.011 0.0684,0.0228 0.1019,0.0355 0.0335,0.0128 0.0669,0.0262 0.1,0.0404 0.033,0.0144 0.0655,0.0294 0.098,0.0453 0.0323,0.0159 0.0641,0.0325 0.0955,0.05 0.0314,0.0176 0.0624,0.0358 0.0931,0.0546 0.0305,0.0189 0.0605,0.0387 0.09,0.059 0.0297,0.0205 0.0588,0.0416 0.0875,0.0634 0.0283,0.0218 0.0565,0.0444 0.084,0.0676 0.0275,0.0232 0.0544,0.047 0.0806,0.0715 0.0263,0.0245 0.052,0.0497 0.0772,0.0755 0.0249,0.0257 0.0495,0.0521 0.0732,0.0791 0.0241,0.0269 0.047,0.0543 0.0696,0.0824 0.0225,0.028 0.0444,0.0567 0.0655,0.0858 0.0207,0.0292 0.0414,0.0588 0.0609,0.089 0.0197,0.0301 0.0385,0.0607 0.0566,0.0918 0.0182,0.0309 0.0355,0.0624 0.0522,0.0942 0.0166,0.0319 0.0323,0.0642 0.0475,0.0968 0.0149,0.0329 0.0292,0.066 0.0427,0.0993 0.0134,0.0334 0.0262,0.0671 0.0377,0.101 0.012,0.034 0.0227,0.0683 0.0331,0.1028 0.01,0.0345 0.0192,0.069 0.0276,0.1041 0.0086,0.0348 0.0162,0.0701 0.0228,0.1055 0.0068,0.0353 0.0125,0.0706 0.0176,0.1064 0.0049,0.0355 0.009,0.0712 0.0123,0.107 0.0034,0.0357 0.0055,0.0718 0.0073,0.1078 0.0015,0.0358 0.002,0.0717 0.0017,0.1078 -0.0002,0.036 -0.0012,0.072 -0.0032,0.1078 -0.0019,0.0358 -0.0048,0.0718 -0.0085,0.1076 -0.0039,0.0358 -0.0086,0.0713 -0.014,0.1068 -0.0055,0.0358 -0.0117,0.0711 -0.019,0.1063 -0.0071,0.0353 -0.0152,0.0703 -0.0241,0.1051 -0.0089,0.0351 -0.0189,0.0696 -0.0293,0.1039 -0.0106,0.0342 -0.0218,0.0685 -0.0343,0.1023 -0.0123,0.0338 -0.0252,0.0672 -0.0392,0.1004 -0.0138,0.0331 -0.0283,0.066 -0.0439,0.0985 -0.0156,0.0323 -0.0318,0.0644 -0.0489,0.096 -0.017,0.0316 -0.0348,0.063 -0.0534,0.0938 -0.0187,0.0308 -0.0377,0.061 -0.0579,0.0911 -0.0201,0.0296 -0.0409,0.059 -0.0622,0.0879 -0.0216,0.029 -0.0438,0.057 -0.0666,0.0849 -0.0227,0.0277 -0.0462,0.0548 -0.0706,0.0816 -0.024,0.0265 -0.0489,0.0527 -0.0742,0.078 -0.0255,0.0255 -0.0517,0.0504 -0.0783,0.0744 -0.0266,0.0243 -0.0539,0.0476 -0.0816,0.0706 -0.0277,0.0228 -0.0561,0.0448 -0.085,0.0664 -0.0289,0.0213 -0.0583,0.0421 -0.0882,0.0622 -0.0299,0.0198 -0.06,0.0392 -0.0909,0.0578 -0.0308,0.0183 -0.0622,0.0363 -0.0938,0.0531 -0.0317,0.0172 -0.0637,0.0334 -0.0963,0.0488 -0.0325,0.0154 -0.0654,0.03 -0.0984,0.0441 -0.0334,0.0137 -0.0666,0.0266 -0.1005,0.0389 -0.034,0.0123 -0.068,0.0238 -0.1024,0.0342 -0.0345,0.0106 -0.069,0.0204 -0.1038,0.0292 -0.0473,0.0121 -0.0948,0.0224 -0.1428,0.0314 -0.0478,0.0088 -0.096,0.0161 -0.1443,0.0218 -0.0485,0.0055 -0.0969,0.0097 -0.1457,0.0123 -0.0487,0.0027 -0.0976,0.0034 -0.1463,0.0027 -0.0487,-0.0005 -0.0973,-0.003 -0.146,-0.0068 -0.0485,-0.0039 -0.0968,-0.0094 -0.1449,-0.0167 -0.0482,-0.0072 -0.0962,-0.0156 -0.1438,-0.026 -0.0477,-0.0102 -0.0951,-0.022 -0.1418,-0.0354 -0.0468,-0.0136 -0.0933,-0.0284 -0.1391,-0.0449 -0.0458,-0.0165 -0.0911,-0.0345 -0.1357,-0.0539 -0.0447,-0.0192 -0.0888,-0.0401 -0.1323,-0.0627 -0.043,-0.0223 -0.0858,-0.046 -0.1276,-0.0713 -0.0416,-0.0249 -0.0825,-0.0516 -0.1224,-0.0796 -0.04,-0.0276 -0.0789,-0.0569 -0.1171,-0.0874 -0.038,-0.0304 -0.0751,-0.0621 -0.1111,-0.0949 -0.0358,-0.0328 -0.0708,-0.0669 -0.1044,-0.1021 -0.0338,-0.0351 -0.0664,-0.0713 -0.0977,-0.1087 -0.0314,-0.0373 -0.0615,-0.0755 -0.0901,-0.1149 -0.029,-0.0393 -0.0563,-0.0797 -0.0825,-0.1205 -0.0262,-0.0411 -0.051,-0.0832 -0.0742,-0.1259 -0.0235,-0.0428 -0.0456,-0.0862 -0.0659,-0.1306 -0.0207,-0.0441 -0.0397,-0.089 -0.0573,-0.1345 -0.0173,-0.0455 -0.0336,-0.0914 -0.048,-0.1379 -0.0145,-0.0466 -0.0275,-0.0935 -0.0389,-0.1408 -0.0115,-0.0475 -0.0213,-0.0953 -0.0297,-0.1433 -0.008,-0.048 -0.0147,-0.0962 -0.0199,-0.1448 -0.0052,-0.0484 -0.0086,-0.0968 -0.0105,-0.1457 -0.0021,-0.0485 -0.0023,-0.0972 -0.0011,-0.146 0.0015,-0.0487 0.0045,-0.0975 0.0091,-0.1459 0.0044,-0.0486 0.0106,-0.0968 0.0184,-0.145 0.0075,-0.048 0.0168,-0.096 0.0278,-0.1432 0.0108,-0.0475 0.0233,-0.0946 0.0373,-0.1414 0.0139,-0.0468 0.0293,-0.0928 0.0466,-0.1387 0.0168,-0.0454 0.0354,-0.0906 0.0555,-0.1348 0.0201,-0.0446 0.0415,-0.0884 0.0644,-0.1314 0.0228,-0.0431 0.0471,-0.0852 0.0728,-0.1266 0.0258,-0.0414 0.0527,-0.0821 0.0811,-0.1217 0.0283,-0.0394 0.058,-0.0782 0.0889,-0.1159 0.0308,-0.0377 0.063,-0.0742 0.0963,-0.11 0.0333,-0.0356 0.0679,-0.0697 0.1035,-0.1031 0.0355,-0.0333 0.0723,-0.0654 0.1101,-0.0962 0.0376,-0.0309 0.0764,-0.0605 0.116,-0.0888 0.0398,-0.0283 0.0802,-0.0553 0.1218,-0.081 0.0414,-0.0255 0.0835,-0.0497 0.1266,-0.0727 0.0428,-0.0228 0.0867,-0.0441 0.1314,-0.064 0.0443,-0.02 0.0896,-0.0386 0.1351,-0.0555 0.0459,-0.0169 0.0919,-0.0324 0.1384,-0.0463 0.0468,-0.0139 0.0941,-0.0264 0.1416,-0.0372z"/>
   <path fill="#3A312C" fill-rule="nonzero" d="M29.4699 39.4777c0.3824,-1.8339 1.3624,-3.4407 2.9474,-4.4878 0.1575,-0.1042 0.3174,-0.2036 0.4747,-0.3081 0.8203,0.4551 1.6543,0.885 2.4665,1.3552 -1.1679,0.2721 -1.9984,0.8305 -2.6289,1.8601 -0.0343,0.0551 -0.0673,0.1114 -0.0989,0.1682 -0.0319,0.0571 -0.0621,0.1146 -0.0907,0.1732 -0.0289,0.0586 -0.0563,0.1179 -0.0821,0.1776 -0.0259,0.0597 -0.0504,0.12 -0.0732,0.181 -0.023,0.0611 -0.0443,0.1227 -0.0642,0.1847 -0.0198,0.0623 -0.0382,0.1247 -0.0551,0.1877 -0.0168,0.063 -0.032,0.1263 -0.0458,0.1901 -0.0137,0.0637 -0.0258,0.1275 -0.0363,0.192 -0.0105,0.0641 -0.0193,0.1289 -0.0266,0.1938 -0.0073,0.0647 -0.0132,0.1296 -0.0173,0.1944 -0.0042,0.0652 -0.0066,0.1304 -0.0076,0.1955 -0.0008,0.0652 -0.0003,0.1303 0.0019,0.1955 0.0025,0.0652 0.0064,0.1301 0.0118,0.195 0.0054,0.0649 0.0125,0.1297 0.0214,0.1942 0.0085,0.0647 0.0188,0.129 0.0305,0.1932 0.0121,0.064 0.0255,0.1279 0.0404,0.191 0.0072,0.03 0.0149,0.0596 0.0225,0.0892 -0.5822,-0.2642 -1.0777,-0.7491 -1.6488,-1.0569 -0.3495,-0.1883 -0.8397,-0.2148 -1.1415,-0.4587z"/>
   <path fill="#252422" fill-rule="nonzero" d="M47.8956 46.2206c0.5931,-0.0841 1.4433,-0.0115 1.969,0.2838 0.2221,0.1251 0.461,0.345 0.5028,0.6109 0.0414,0.2621 -0.0352,0.4923 -0.1923,0.703 -0.4235,0.5687 -1.1434,0.7808 -1.8114,0.8771 -0.6493,-0.0204 -1.2551,-0.1431 -1.8191,-0.4769 -0.303,-0.1794 -0.6532,-0.46 -0.724,-0.827 -0.037,-0.1913 0.0211,-0.3717 0.1424,-0.5202 0.4169,-0.51 1.3206,-0.5805 1.9326,-0.6508z"/>
   <path fill="#252422" fill-rule="nonzero" d="M48.3099 53.0742c1.911,0.8313 5.9143,3.5301 7.3805,5.0215 0.1049,0.1066 0.1932,0.1815 0.1967,0.336 -0.3043,-0.0066 -0.6688,-0.4416 -0.8999,-0.6297 -0.8899,-0.7233 -6.0948,-4.2277 -6.7995,-4.1595 -1.971,1.1651 -3.8959,2.4021 -5.7749,3.7103 -0.33,0.2278 -1.5334,1.2385 -1.7977,1.2962l-0.0794 -0.0732c0.0843,-0.2741 0.6377,-0.6432 0.8767,-0.837 2.1736,-1.7625 4.4983,-3.2339 6.8975,-4.6647z"/>
   <path fill="#FDCA3A" fill-rule="nonzero" d="M25.6619 61.8364c0.8502,0.6153 1.7304,1.1841 2.6409,1.7063 0.9104,0.5222 1.8456,0.9949 2.8061,1.4182 6.9626,3.0821 15.8137,4.1088 23.3327,3.0167 0.9016,-0.1333 1.798,-0.2964 2.6889,-0.4892 0.8908,-0.1925 1.7746,-0.4146 2.6507,-0.666 0.8761,-0.2514 1.7432,-0.5312 2.6008,-0.8401 0.8578,-0.3089 1.7042,-0.6457 2.5395,-1.0107 1.423,-0.6203 2.7927,-1.4272 4.0815,-2.2916 0.2569,-0.1725 1.3267,-1.0665 1.5242,-1.0687l0.0799 0.1891c1.263,3.4 2.3788,6.934 3.2483,10.4564 0.7887,3.195 1.3945,6.4549 1.9675,9.694 0.6361,3.588 1.294,7.2761 1.1596,10.9365 -0.0793,2.1577 -0.4925,4.3832 -1.3875,6.3528 -1.5656,3.4431 -4.3075,6.0394 -7.855,7.3672 -1.5754,0.5898 -3.2109,0.974 -4.8954,1.0521 -1.8084,0.084 -3.6371,-0.1066 -5.4388,-0.2479 -2.92,-0.2294 -5.8548,-0.4931 -8.7863,-0.4762 -2.9625,0.0172 -5.9596,0.2901 -8.9097,0.5426 -2.14,0.183 -4.2801,0.4135 -6.4309,0.2951 -0.252,-0.0117 -0.5035,-0.0293 -0.7549,-0.053 -0.2514,-0.0236 -0.5017,-0.0532 -0.7515,-0.0887 -0.2498,-0.0356 -0.4987,-0.077 -0.7466,-0.1239 -0.2479,-0.0473 -0.4946,-0.1002 -0.74,-0.1593 -0.2454,-0.0588 -0.4891,-0.1235 -0.7314,-0.1938 -0.2424,-0.0703 -0.483,-0.1465 -0.7215,-0.228 -0.2388,-0.0818 -0.4754,-0.169 -0.7102,-0.2618 -0.2345,-0.0928 -0.467,-0.1913 -0.6968,-0.2951 -3.6494,-1.6848 -5.7456,-4.2431 -7.1048,-7.9787 -0.7766,-2.1353 -1.0593,-4.4075 -1.0698,-6.6707 -0.0142,-3.0672 0.51,-6.1333 1.0044,-9.1516 0.4571,-2.9379 1.032,-5.8523 1.7241,-8.7436 0.3143,-1.3717 0.608,-2.7462 0.9989,-4.0991 0.6672,-2.3071 1.5108,-4.5813 2.3409,-6.8342 0.1428,-0.3418 0.2383,-0.6999 0.3419,-1.0551z"/>
   <path fill="#E99A17" fill-rule="nonzero" d="M25.6619 61.8364c0.8502,0.6153 1.7304,1.1841 2.6409,1.7063 0.9104,0.5222 1.8456,0.9949 2.8061,1.4182 6.9626,3.0821 15.8137,4.1088 23.3327,3.0167 0.9016,-0.1333 1.798,-0.2964 2.6889,-0.4892 0.8908,-0.1925 1.7746,-0.4146 2.6507,-0.666 0.8761,-0.2514 1.7432,-0.5312 2.6008,-0.8401 0.8578,-0.3089 1.7042,-0.6457 2.5395,-1.0107 1.423,-0.6203 2.7927,-1.4272 4.0815,-2.2916 0.2569,-0.1725 1.3267,-1.0665 1.5242,-1.0687l0.0799 0.1891c-0.0162,0.0159 -0.0329,0.0313 -0.0486,0.0477 -0.2288,0.2405 -0.3899,0.5545 -0.6385,0.775 -0.8565,0.7593 -1.9438,1.4118 -2.8874,2.0693 -5.0227,3.5 -10.7276,5.6764 -16.8732,5.952 -5.6666,0.254 -11.709,-1.1879 -16.9221,-3.327 -1.2347,-0.5065 -2.4251,-1.015 -3.5878,-1.6748 -0.7927,-0.4498 -1.5909,-0.9271 -2.3367,-1.4515 -0.5267,-0.3702 -1.0196,-0.8219 -1.5681,-1.1539 -0.1391,-0.0841 -0.2655,-0.1208 -0.4247,-0.1458 0.1428,-0.3418 0.2383,-0.6999 0.3419,-1.0551z"/>
   <path fill="#252422" fill-rule="nonzero" d="M32.1785 67.9539c0.4982,0.2169 1.2744,1.2464 1.6141,1.6822 1.224,1.5702 2.2542,3.3944 3.173,5.1574 1.3053,2.5042 2.3558,5.1946 3.348,7.8381 0.3371,0.8979 0.7468,1.825 0.984,2.7543 0.0921,0.3607 0.1663,0.7619 0.1097,1.1328 -0.1746,1.1449 -0.9859,0.7844 -1.548,1.2233 -0.1504,0.1175 -0.0933,0.4621 -0.1345,0.6449 -0.0686,0.3049 -0.4007,0.6099 -0.6581,0.7618 -0.6877,0.4054 -1.4262,0.3208 -2.1574,0.1198 -0.0397,0.1482 -0.0845,0.2848 -0.1646,0.4168 -0.1886,0.3118 -0.5379,0.5318 -0.8877,0.6143 -0.775,0.1822 -1.6044,-0.1834 -2.2614,-0.5719 -3.5204,-2.0803 -7.2098,-7.5267 -8.7451,-11.2807 -0.6625,-1.6199 -1.064,-3.3079 -1.4917,-4.9999 0.2235,0.3309 0.3763,0.7172 0.5423,1.0799 1.62,3.8426 3.5942,7.744 6.3208,10.9316 1.0921,1.2764 3.6303,4.0719 5.3035,4.1571 0.2134,0.0108 0.4576,-0.0174 0.608,-0.1884 0.4356,-0.4955 -0.2359,-1.1886 -0.3052,-1.6761l0.06 -0.0469c0.3317,0.0685 0.8203,0.6079 1.1814,0.771 0.5055,0.2286 1.1422,0.2531 1.6572,0.0364 0.1994,-0.0839 0.3755,-0.2303 0.4433,-0.4429 0.1824,-0.5725 -0.6302,-1.3813 -0.8754,-1.9181 0.5244,0.3157 1.3748,0.8288 2.0034,0.7076 0.2012,-0.039 0.2974,-0.1332 0.4111,-0.2885 0.0937,-0.3844 0.0037,-0.7939 -0.1002,-1.1684 -0.2766,-0.9992 -0.7885,-1.9983 -1.1764,-2.9656 -1.2913,-3.2192 -2.6568,-6.4105 -4.2894,-9.474 -0.9181,-1.7224 -1.9814,-3.3302 -2.9645,-5.0079z"/>
   <path fill="#252422" fill-rule="nonzero" d="M63.8597 68.74c0.0156,0.0196 0.0445,0.0341 0.0465,0.0591 0.0069,0.0849 -1.2869,2.0117 -1.427,2.2296 -2.309,3.585 -4.3868,7.1816 -5.7673,11.2369 -0.3498,1.0268 -0.7096,2.1087 -0.8255,3.1896 -0.0374,0.351 -0.0941,0.8641 0.1762,1.1429 0.1643,0.1694 0.3684,0.229 0.5989,0.2249 0.5557,-0.0098 0.7798,-0.2371 1.1374,-0.6131 -0.0847,0.4012 -0.5626,1.6932 -0.4977,1.987 0.0348,0.1577 0.1168,0.2699 0.2538,0.3517 0.3132,0.1874 0.824,0.0918 1.1558,0.0084 0.8061,-0.2036 1.3859,-0.524 1.8234,-1.2455 -0.1686,0.4463 -0.6449,1.2698 -0.5616,1.7361 0.0318,0.1776 0.0757,0.2028 0.207,0.3123 0.6868,0.1578 1.4779,-0.0245 2.1145,-0.2969 1.1285,-0.4822 2.1039,-1.2969 2.9675,-2.1535 3.1975,-3.1705 5.0386,-7.3826 6.6907,-11.4931 0.1228,-0.3091 0.2925,-0.6011 0.4475,-0.895 -0.1373,0.6582 -0.2824,1.3114 -0.4683,1.9577 -1.26,4.3782 -4.5623,10.6485 -8.6529,12.888 -0.8508,0.4656 -2.1871,1.0543 -3.166,0.7422 -0.5052,-0.161 -0.723,-0.4796 -0.953,-0.9261 -0.3233,0.0696 -0.6574,0.1558 -0.9898,0.1525 -0.4521,-0.0046 -0.9337,-0.1144 -1.2488,-0.4617 -0.3571,-0.3934 -0.3408,-0.8039 -0.3303,-1.2986 -0.3924,-0.1242 -0.8354,-0.2435 -1.123,-0.5561 -0.2814,-0.3059 -0.3182,-0.8125 -0.3045,-1.2073 0.039,-1.1262 0.4181,-2.2711 0.7695,-3.3358 0.1645,-0.4973 0.3393,-0.9913 0.5234,-1.4817 0.1842,-0.4906 0.378,-0.9774 0.5812,-1.4601 0.2033,-0.4828 0.4162,-0.9613 0.6383,-1.4358 0.2222,-0.4745 0.4537,-0.9444 0.6942,-1.4099 0.2408,-0.4653 0.4904,-0.9256 0.7493,-1.3812 0.2587,-0.4556 0.5263,-0.9058 0.8029,-1.3509 0.2765,-0.445 0.5616,-0.8845 0.8554,-1.3183 0.2938,-0.4338 0.5962,-0.8616 0.9067,-1.2834 0.6698,-0.9171 1.3455,-1.8345 2.1758,-2.615z"/>
   <path fill="#FDCA3A" fill-rule="nonzero" d="M76.5175 53.9043c2.8926,-4.6954 6.5133,-7.9573 11.0373,-11.0247 2.4026,-1.6296 4.9672,-3.0974 7.6429,-4.2329 1.3391,-0.5685 2.734,-0.9944 4.1165,-1.4422 0.8006,1.1157 1.5937,2.2527 2.2407,3.4666 2.5404,4.7707 3.6741,10.9165 3.7759,16.28 0.0602,0.6284 0.0477,1.264 0.0518,1.8951 -5.5533,0.9726 -12.2895,2.9125 -17.2543,5.626 -0.5017,-0.7934 -0.9867,-1.6587 -1.5986,-2.3733l-0.4391 -0.5413c1.1971,2.6282 2.5788,5.1718 3.6816,7.8438 0.5067,1.2278 0.9108,2.48 1.2949,3.7507 -0.6729,-0.4945 -1.5027,-0.745 -2.32,-0.8657 -1.7791,-0.262 -3.5581,-0.1175 -5.343,-0.046 -2.0745,0.0832 -4.1491,0.1058 -6.2245,0.068 -0.9007,-0.0188 -1.8115,-0.0171 -2.7071,-0.1178 -0.0169,-0.1325 -0.0252,-0.0649 0.038,-0.2004 2.356,-1.1718 4.9665,-1.9139 7.5187,-2.5223 0.6979,-0.1666 1.4092,-0.3696 2.1213,-0.4584 -0.3148,-0.8509 -0.7422,-1.679 -1.1337,-2.4977 -0.8098,-1.6925 -1.6529,-3.3681 -2.5287,-5.0273 -1.3165,-2.5343 -2.5637,-5.0928 -3.9704,-7.5802z"/>
   <path fill="#E99A17" fill-rule="nonzero" d="M105.3307 56.951c0.0602,0.6284 0.0477,1.264 0.0518,1.8951 -5.5533,0.9726 -12.2895,2.9125 -17.2543,5.626 -0.5017,-0.7934 -0.9867,-1.6587 -1.5986,-2.3733 0.9792,-0.676 2.2599,-1.1427 3.371,-1.5654 5.0599,-1.926 10.0406,-2.6089 15.4293,-2.2417 -0.0133,-0.4487 -0.0217,-0.8922 0.0008,-1.3407z"/>
   <path fill="#BA5828" fill-rule="nonzero" d="M74.4724 72.1905c0.8955,0.1007 1.8064,0.099 2.7071,0.1178 2.0754,0.0377 4.15,0.0152 6.2245,-0.068 1.7849,-0.0715 3.5639,-0.216 5.343,0.046 0.8173,0.1206 1.6471,0.3712 2.32,0.8657 0.0384,0.1414 0.0576,0.2474 0.0509,0.3939 -0.8641,0.5259 -8.0511,1.6301 -9.6348,1.8877 -0.3598,-0.5066 -0.7747,-0.9891 -1.2022,-1.4393 0.4734,1.1507 1.2355,2.2606 1.8516,3.3461 1.3032,2.2959 2.5964,4.598 3.6099,7.0405 -0.7597,1.0433 -1.6931,1.9978 -2.5654,2.9466 -1.7298,1.8896 -3.5129,3.7275 -5.3496,5.5143 0.0843,-2.5586 -0.2813,-5.056 -0.5961,-7.5882 0.8056,-0.7928 1.6872,-1.6645 2.5922,-2.3411 0.192,-0.0144 0.2003,0.0311 0.3439,0.1492l0.0385 -0.0257c-0.3373,-0.8591 -0.8365,-1.6901 -1.2589,-2.5113 -1.4434,-2.8051 -3.0939,-5.5023 -4.4745,-8.3341z"/>
   <path fill="#EB6E1F" fill-rule="nonzero" d="M70.9288 47.7159c1.6727,-0.1318 3.312,0.2756 4.6695,1.2799 0.0776,1.0413 -0.0518,2.2174 -0.2472,3.241 -0.7791,4.094 -3.5124,7.5116 -6.8984,9.8021 -0.0249,0.0038 -0.0494,0.0119 -0.0748,0.0114 -0.2954,-0.0032 -0.8734,-0.5117 -1.1064,-0.6988 -1.7245,-1.3847 -3.1575,-3.2373 -3.3965,-5.5025 -0.196,-1.8574 0.4575,-3.7667 1.6303,-5.2026 1.39,-1.702 3.2397,-2.7173 5.4235,-2.9305z"/>
   <path fill="#EB6E1F" fill-rule="nonzero" d="M23.9654 47.4752c0.7779,-0.0441 1.54,0.0296 2.2909,0.2422 1.9576,0.5543 3.5049,1.9306 4.4709,3.6968 0.9349,1.7093 1.2969,3.6712 0.7216,5.5606 -0.6087,1.9992 -1.9331,3.6301 -3.764,4.6152l-0.544 0.2555c-1.0453,-0.6714 -2.0261,-1.5042 -2.9064,-2.3794 -0.0816,-0.0804 -0.1621,-0.1618 -0.2421,-0.2441 -0.0795,-0.0826 -0.1582,-0.1661 -0.2358,-0.2504 -0.0774,-0.0845 -0.1542,-0.1697 -0.2295,-0.256 -0.0755,-0.0865 -0.1499,-0.1737 -0.2231,-0.2619 -0.0736,-0.0881 -0.1456,-0.1771 -0.2168,-0.2669 -0.071,-0.0899 -0.1411,-0.1808 -0.2099,-0.2724 -0.0689,-0.0916 -0.1364,-0.1841 -0.203,-0.2775 -0.0667,-0.0934 -0.1319,-0.1877 -0.1961,-0.2827 -0.0644,-0.0948 -0.1273,-0.1906 -0.189,-0.2871 -0.062,-0.0968 -0.1228,-0.194 -0.1821,-0.292 -0.0595,-0.098 -0.1178,-0.1966 -0.1746,-0.2961 -0.057,-0.0994 -0.1126,-0.1999 -0.1673,-0.3005 -0.0543,-0.101 -0.1078,-0.2026 -0.1594,-0.3047 -0.0521,-0.1022 -0.1028,-0.205 -0.1524,-0.3084 -0.0492,-0.1034 -0.0974,-0.2075 -0.1442,-0.3123 -0.0468,-0.1046 -0.0924,-0.2098 -0.1366,-0.3155 -0.0441,-0.1058 -0.0872,-0.2122 -0.1286,-0.319 -0.0417,-0.1068 -0.0821,-0.2142 -0.1211,-0.3218 -0.0386,-0.108 -0.0764,-0.2163 -0.1126,-0.325 -0.0363,-0.1088 -0.0711,-0.218 -0.1046,-0.3275 -0.0335,-0.1097 -0.0657,-0.2196 -0.0965,-0.3301 -0.0309,-0.1105 -0.0603,-0.2212 -0.0884,-0.3324 -0.028,-0.1112 -0.0546,-0.2227 -0.0799,-0.3343 -0.0255,-0.112 -0.0493,-0.2241 -0.0718,-0.3366 -0.0225,-0.1124 -0.0436,-0.2249 -0.0632,-0.338 -0.0198,-0.1129 -0.0382,-0.2261 -0.0551,-0.3393 -0.0169,-0.1137 -0.0324,-0.2272 -0.0462,-0.341 -0.0142,-0.1137 -0.027,-0.2275 -0.038,-0.3417 -0.0113,-0.1141 -0.0213,-0.2283 -0.0297,-0.3427 -0.0086,-0.1145 -0.0154,-0.2288 -0.021,-0.3432 -0.0056,-0.1146 -0.0098,-0.2292 -0.0125,-0.3438 -0.0027,-0.1144 -0.0039,-0.2291 -0.0039,-0.344l0.0311 -0.0465c0.0772,-0.1186 0.1535,-0.2413 0.2452,-0.3498 0.8734,-1.0364 2.2777,-1.558 3.5898,-1.7059z"/>
   <path fill="#FEFEFE" fill-rule="nonzero" d="M75.7611 54.0825c0.2262,0.2809 0.4116,0.6701 0.5953,0.9835 0.6812,1.1591 1.2681,2.34 1.8725,3.5392 1.6621,3.2989 3.2424,6.639 4.9388,9.9205 -0.9985,0.1973 -1.9885,0.4283 -2.9703,0.6934 -0.9825,0.2647 -1.9544,0.5628 -2.9169,0.8939 -0.9709,0.3481 -1.9176,0.7221 -2.8497,1.1665 -0.4037,-1.21 -0.7263,-2.4502 -1.0996,-3.6704 -0.6591,-2.1957 -1.416,-4.357 -2.2701,-6.4843 2.214,-2.0888 3.61,-4.1909 4.7,-7.0424z"/>
   <path fill="#FDCA3A" fill-rule="nonzero" d="M59.2169 108.3832c4.7315,0.2673 6.9271,-0.366 11.2365,-2.1437 0.2523,0.1424 0.4889,0.3174 0.7277,0.4811 0.9874,0.8422 2.2513,2.1229 2.3708,3.499 0.052,0.5991 -0.168,0.9622 -0.5408,1.3951 -0.2124,-1.0757 -0.8612,-1.9776 -1.7694,-2.5826 -0.2908,-0.1935 -0.5969,-0.3341 -0.9165,-0.4718 0.8377,0.7067 1.4013,1.3638 1.8808,2.3541 0.1166,0.2408 0.2515,0.4999 0.2712,0.7706 0.0095,0.132 -0.0182,0.2375 -0.1012,0.3412 -0.339,0.4231 -1.633,0.551 -2.1498,0.5545 -0.1094,0.0007 -0.2192,-0.0014 -0.3287,-0.0022 -0.1783,-1.1536 -1.0946,-2.4798 -2.0387,-3.1511 -0.1518,-0.1079 -0.309,-0.2062 -0.469,-0.3017 0.3067,0.4915 0.6712,0.9425 0.9724,1.4355 0.3909,0.6395 0.6701,1.3386 0.9589,2.0281 -2.5719,-0.1517 -5.1766,-0.9747 -7.4065,-2.2628 -0.9638,-0.5465 -1.8522,-1.2316 -2.6977,-1.9434z"/>
   <path fill="#EB6E1F" fill-rule="nonzero" d="M59.2169 108.3832c4.7315,0.2673 6.9271,-0.366 11.2365,-2.1437 0.2523,0.1424 0.4889,0.3174 0.7277,0.4811 -2.0731,1.3923 -5.1126,2.6093 -7.5095,3.2744 -0.5766,0.16 -1.1819,0.1734 -1.757,0.3317 -0.9638,-0.5465 -1.8522,-1.2316 -2.6977,-1.9434z"/>
   <path fill="#FDCA3A" fill-rule="nonzero" d="M26.0981 106.789c0.5447,-0.0067 2.4515,0.9199 3.1266,1.1257 2.4166,0.7356 5.2849,0.8918 7.7952,0.6405 -1.1813,0.8794 -2.4136,1.799 -3.758,2.4163 -1.782,0.8813 -3.5676,1.3876 -5.5415,1.6152 -0.0021,-1.372 0.3803,-2.276 1.0492,-3.4518 -0.2197,0.1712 -0.4355,0.3562 -0.6253,0.5605 -0.7763,0.835 -0.9503,1.7924 -0.9039,2.8895 -0.7897,-0.0107 -2.0773,0.0005 -2.7654,-0.4384 -0.1653,-0.1055 -0.2544,-0.2481 -0.2869,-0.4418 -0.1824,-1.0959 0.776,-2.6272 1.4105,-3.4476 -0.1759,0.1435 -0.3543,0.2841 -0.5278,0.4304 -0.9985,0.8399 -1.3115,1.8777 -1.4151,3.1389 -0.3425,-0.2018 -1.0011,-0.5408 -1.1593,-0.9247 -0.1724,-0.4183 0.0818,-0.9802 0.2583,-1.3679 0.6702,-1.4709 1.8871,-2.1895 3.3433,-2.7447z"/>
   <path fill="#EB6E1F" fill-rule="nonzero" d="M26.0981 106.789c0.5447,-0.0067 2.4515,0.9199 3.1266,1.1257 2.4166,0.7356 5.2849,0.8918 7.7952,0.6405 -1.1813,0.8794 -2.4136,1.799 -3.758,2.4163 -0.3684,-0.2785 -1.1211,-0.3696 -1.574,-0.5082 -2.4465,-0.7489 -3.9397,-1.7284 -5.5898,-3.6743z"/>
   <path fill="#FEFEFE" fill-rule="nonzero" d="M75.4856 75.7338c0.3381,0.4342 0.6028,0.994 0.8725,1.4755 0.9993,1.7907 1.8433,3.6639 2.7908,5.4829l-0.98 0.8375c-0.344,0.3172 -0.6863,0.6241 -1.0577,0.9085 -0.3908,-2.0791 -0.8365,-4.1483 -1.2131,-6.2293 -0.1469,-0.8132 -0.3431,-1.6521 -0.4124,-2.4751z"/>
  </g>
 </g>
</svg>
