<?xml version="1.0" encoding="UTF-8"?>
<!DOCTYPE svg PUBLIC "-//W3C//DTD SVG 1.1//EN" "http://www.w3.org/Graphics/SVG/1.1/DTD/svg11.dtd">
<!-- Creator: CorelDRAW 2018 (64 Bit) -->
<svg xmlns="http://www.w3.org/2000/svg" xml:space="preserve" width="80.2437mm" height="79.5365mm" version="1.1" shape-rendering="geometricPrecision" text-rendering="geometricPrecision" image-rendering="optimizeQuality" fill-rule="evenodd" clip-rule="evenodd"
viewBox="0 0 39.0026 38.6589"
 xmlns:xlink="http://www.w3.org/1999/xlink">
 <g id="Camada_x0020_1">
  <metadata id="CorelCorpID_0Corel-Layer"/>
  <path fill="#FEF2D5" d="M31.312 32.9859c-0.3968,-0.0197 -0.8322,0.4375 -1.5172,0.7332 -1.8529,0.7997 -3.9719,1.6098 -6.0254,1.7398 -4.2625,0.2698 -6.9861,-0.0544 -10.7492,-1.8788 -0.7591,-0.368 -1.9992,-1.0346 -2.6276,-1.5658l-1.5677 -1.333c-0.0982,-0.0876 -0.252,-0.1893 -0.3702,-0.2822 -0.8041,-0.6318 -0.9955,-1.0711 -1.4199,-1.4918 -0.1388,-0.1376 -0.0303,-0.0227 -0.1744,-0.1418 -0.2007,-0.1659 -0.1208,-0.04 -0.304,-0.335 -0.1661,-0.2674 -0.0386,-0.1367 -0.2643,-0.3894l-2.3438 -3.4813 -0.5254 -0.0572c0.7833,-0.1644 2.2256,0.0542 3.109,0.0769 2.0841,0.0536 7.0598,-0.2209 8.7767,-0.8025 0.3294,0.3106 0.7462,1.5267 2.4671,2.5753 1.0987,0.6695 2.6826,0.9715 4.154,0.7011 1.8791,-0.3453 3.5755,-1.5145 4.4296,-3.22 0.3655,-0.7298 0.3892,-1.1136 0.576,-1.9001 3.4976,-0.9611 5.0971,-1.3324 8.3671,-2.8229 0.8378,-0.3819 1.6393,-0.9417 2.3727,-1.3099 0.0209,1.8585 0.1633,3.2265 -0.1906,5.1136 -0.2293,1.2227 -0.7943,3.2006 -1.2931,4.0919 -1.6619,2.9692 -1.6062,2.87 -3.4158,4.7568 -0.4157,0.4334 -0.7404,0.9414 -1.4634,1.2232z"/>
  <path fill="#FEF2D5" d="M23.7462 21.4505c0.7409,-3.7509 -4.6729,-5.0708 -5.4888,-1.3894 -0.3894,1.757 0.7671,3.1509 2.0973,3.5061 1.7178,0.4588 3.1229,-0.7565 3.3915,-2.1167zm-1.9313 -4.7754c5.5367,1.5205 3.2736,9.3811 -1.8586,8.1312 -0.929,-0.2263 -1.8886,-0.9226 -2.3962,-1.6775 -0.559,-0.8312 -0.9281,-2.0856 -0.6964,-3.2904 0.3887,-2.0212 2.4389,-3.8533 4.9513,-3.1633z"/>
  <path fill="#FEF2D5" d="M23.1844 20.9122c-0.0172,1.1943 -1.1564,2.272 -2.4359,2.1477 -1.1426,-0.1109 -2.0306,-1.1914 -1.994,-2.4565 0.0867,-2.9978 4.4748,-2.8034 4.43,0.3087z"/>
  <path fill="#46291A" d="M3.4228 24.5024l-1.4215 -0.3003c0.7873,2.8146 1.6188,4.1587 3.1896,6.227 0.4685,0.6169 1.1065,1.4336 1.7225,1.942l0.805 0.7016c0.1379,0.128 0.2538,0.1997 0.3651,0.2865 0.091,0.0709 0.0828,0.0698 0.1776,0.142l2.9507 1.8981c0.722,0.3843 1.2644,0.662 2.0738,0.9359 3.6537,1.2366 6.4451,1.4066 10.2679,0.6282 1.5153,-0.3086 3.7968,-1.2825 5.1762,-2.0345 0.3459,-0.1886 0.5946,-0.4016 0.9257,-0.5819 0.3928,-0.2138 1.5381,-1.0003 1.6567,-1.3612 0.723,-0.2818 1.0477,-0.7897 1.4634,-1.2232 1.8096,-1.8869 1.7539,-1.7877 3.4158,-4.7568 0.4989,-0.8913 1.0639,-2.8692 1.2931,-4.0919 0.3538,-1.8871 0.2115,-3.255 0.1906,-5.1136 -0.7334,0.3682 -1.5349,0.928 -2.3727,1.3099 -3.27,1.4905 -4.8696,1.8618 -8.3671,2.8229 -0.1868,0.7865 -0.2105,1.1703 -0.576,1.9001 -0.8541,1.7055 -2.5505,2.8747 -4.4296,3.22 -1.4714,0.2704 -3.0553,-0.0316 -4.154,-0.7011 -1.7209,-1.0486 -2.1376,-2.2647 -2.4671,-2.5753 -1.7169,0.5816 -6.6925,0.8561 -8.7767,0.8025 -0.8834,-0.0227 -2.3257,-0.2413 -3.109,-0.0769zm18.3921 -7.8273c-2.5124,-0.69 -4.5626,1.1421 -4.9513,3.1633 -0.2317,1.2048 0.1375,2.4592 0.6964,3.2904 0.5076,0.7549 1.4672,1.4513 2.3962,1.6775 5.1322,1.2499 7.3953,-6.6107 1.8586,-8.1312zm4.9314 2.3448c2.3865,-0.2461 7.8985,-2.5819 9.9081,-4.0544 0.3637,-0.2665 0.4018,-0.3571 0.2584,-0.8534 -0.598,-2.0706 -1.4235,-3.4652 -2.5427,-5.1065l-2.0911 -2.534c-0.302,-0.2765 -0.649,-0.4406 -0.9097,-0.7113 -0.1047,-0.1087 -0.0675,-0.1004 -0.1969,-0.2269l-0.5853 -0.489c-0.5553,-0.4548 -1.1747,-0.8595 -1.8921,-1.2371 -0.3131,-0.1647 -0.5941,-0.4266 -0.9272,-0.573 -3.8483,-1.691 -7.1021,-2.6214 -11.5714,-1.827 -1.4461,0.2571 -3.4469,0.7428 -4.8033,1.4463 -0.882,0.4575 -3.0074,1.5912 -3.7767,2.3496 -0.6498,0.6406 -0.3362,0.0345 -0.8383,0.7789 -0.1662,0.2465 -0.4945,0.5748 -0.7162,0.7915 -0.2318,0.2268 -0.2371,0.1647 -0.421,0.3236 -0.191,0.1651 -0.1729,0.2052 -0.3414,0.4225l-0.4188 0.5443c-0.3356,0.4797 -1.2362,1.7158 -1.4454,2.2113 -1.155,2.7355 -1.7692,3.3659 -2.0305,7.2026 -0.0637,0.9358 -0.0918,1.9376 -0.0232,2.9031 0.0464,0.652 -0.0762,0.8391 0.4862,0.9748 2.8743,0.6934 7.1139,0.4926 10.1196,0.1397 0.4308,-0.0506 2.3119,-0.3426 2.6109,-0.3187 -0.1754,-1.7443 0.8427,-4.0649 1.5871,-4.9318 0.1101,-0.1282 0.0774,-0.0772 0.1728,-0.1489 0.0181,-0.0136 0.0481,-0.0269 0.0665,-0.0402 0.0184,-0.0133 0.0482,-0.0267 0.0662,-0.0403l1.1042 -0.9443c2.2544,-1.2545 5.3277,-1.0493 6.8428,0.4183 1.1219,1.0868 0.6382,0.3963 1.4494,1.5772 0.6123,0.8915 0.491,1.009 0.859,1.953zm2.4047 17.0933c-2.7231,1.5054 -6.7973,2.7064 -10.2394,2.5281 -1.8012,-0.0934 -3.7574,-0.4493 -5.4206,-1.0031 -0.7206,-0.2399 -1.6012,-0.5119 -2.2997,-0.9289 -0.4814,-0.2875 -1.6224,-0.7851 -2.0861,-1.148 -2.455,-1.55 -4.4567,-3.5711 -6.0583,-6.004 -0.572,-0.8688 -0.9787,-1.5979 -1.4224,-2.6709 -1.7634,-4.2647 -2.2187,-9.1484 -0.7299,-13.7571 0.9259,-2.866 2.4159,-5.5012 4.4872,-7.5768 3.5625,-3.5698 9.1166,-5.9152 14.7144,-5.5062 4.4382,0.3242 8.2503,1.7974 11.632,4.4912l2.5334 2.4219c1.3748,1.3963 3.3665,5.1549 3.9274,7.277 1.3123,4.9657 1.089,9.1913 -1.0526,13.5879 -0.6731,1.3818 -1.1062,1.9849 -1.8943,3.0649 -0.1999,0.2739 -0.2111,0.2803 -0.4862,0.5878 -0.1824,0.2038 -0.2563,0.3715 -0.4252,0.5543 -0.2056,0.2225 -0.3316,0.2566 -0.5656,0.5016l-1.8344 1.7201c-0.1301,0.0972 -0.1656,0.11 -0.3176,0.2245l-2.4622 1.6358z"/>
  <path fill="#D95A32" d="M26.7462 19.0199c-0.368,-0.9439 -0.2466,-1.0614 -0.859,-1.953 -0.8112,-1.181 -0.3275,-0.4904 -1.4494,-1.5772 -1.5151,-1.4677 -4.5884,-1.6728 -6.8428,-0.4183l-1.1042 0.9443c-0.018,0.0136 -0.0479,0.0271 -0.0662,0.0403 -0.0184,0.0134 -0.0484,0.0266 -0.0665,0.0402 -0.0954,0.0717 -0.0627,0.0207 -0.1728,0.1489 -0.7443,0.8669 -1.7624,3.1875 -1.5871,4.9318 -0.2991,-0.0239 -2.1801,0.2681 -2.6109,0.3187 -3.0057,0.3529 -7.2453,0.5537 -10.1196,-0.1397 -0.5625,-0.1357 -0.4399,-0.3227 -0.4862,-0.9748 -0.0686,-0.9655 -0.0405,-1.9673 0.0232,-2.9031 0.2613,-3.8367 0.8755,-4.4671 2.0305,-7.2026 0.2092,-0.4955 1.1098,-1.7316 1.4454,-2.2113l0.4188 -0.5443c0.1684,-0.2173 0.1504,-0.2575 0.3414,-0.4225 0.1839,-0.1589 0.1892,-0.0968 0.421,-0.3236 0.2217,-0.2168 0.55,-0.545 0.7162,-0.7915 0.5021,-0.7444 0.1885,-0.1383 0.8383,-0.7789 0.7693,-0.7584 2.8946,-1.8922 3.7767,-2.3496 1.3564,-0.7036 3.3572,-1.1893 4.8033,-1.4463 4.4693,-0.7945 7.7232,0.1359 11.5714,1.827 0.3331,0.1464 0.6141,0.4082 0.9272,0.573 0.7174,0.3776 1.3368,0.7823 1.8921,1.2371l0.5853 0.489c0.1294,0.1265 0.0922,0.1182 0.1969,0.2269 0.2608,0.2708 0.6077,0.4348 0.9097,0.7113l2.0911 2.534c1.1192,1.6413 1.9447,3.0359 2.5427,5.1065 0.1433,0.4963 0.1052,0.5869 -0.2584,0.8534 -2.0096,1.4725 -7.5217,3.8083 -9.9081,4.0544z"/>
  <path fill="#DAC39C" d="M3.4228 24.5024l0.5254 0.0572 2.3438 3.4813c0.2257,0.2526 0.0982,0.122 0.2643,0.3894 0.1832,0.295 0.1032,0.169 0.304,0.335 0.1441,0.1191 0.0357,0.0043 0.1744,0.1418 0.4244,0.4207 0.6158,0.8601 1.4199,1.4918 0.1182,0.0929 0.272,0.1946 0.3702,0.2822l1.5677 1.333c0.6284,0.5312 1.8685,1.1977 2.6276,1.5658 3.7632,1.8244 6.4867,2.1485 10.7492,1.8788 2.0535,-0.13 4.1726,-0.9401 6.0254,-1.7398 0.685,-0.2957 1.1204,-0.7529 1.5172,-0.7332 -0.1185,0.3609 -1.2638,1.1474 -1.6567,1.3612 -0.3311,0.1803 -0.5798,0.3933 -0.9257,0.5819 -1.3794,0.7519 -3.6609,1.7259 -5.1762,2.0345 -3.8228,0.7785 -6.6142,0.6084 -10.2679,-0.6282 -0.8094,-0.2739 -1.3518,-0.5517 -2.0738,-0.9359l-2.9507 -1.8981c-0.0947,-0.0722 -0.0866,-0.0711 -0.1776,-0.142 -0.1113,-0.0868 -0.2272,-0.1585 -0.3651,-0.2865l-0.805 -0.7016c-0.616,-0.5084 -1.254,-1.3251 -1.7225,-1.942 -1.5708,-2.0683 -2.4023,-3.4124 -3.1896,-6.227l1.4215 0.3003z"/>
  <path fill="#3D2214" d="M23.1844 20.9122c0.0449,-3.1121 -4.3433,-3.3066 -4.43,-0.3087 -0.0366,1.265 0.8515,2.3456 1.994,2.4565 1.2796,0.1242 2.4187,-0.9534 2.4359,-2.1477zm0.5617 0.5383c-0.2686,1.3601 -1.6738,2.5754 -3.3915,2.1167 -1.3301,-0.3552 -2.4867,-1.7491 -2.0973,-3.5061 0.8159,-3.6814 6.2297,-2.3615 5.4888,1.3894z"/>
 </g>
</svg>
